<?xml version="1.0" standalone="no"?>
<!DOCTYPE svg PUBLIC "-//W3C//DTD SVG 20010904//EN"
 "http://www.w3.org/TR/2001/REC-SVG-20010904/DTD/svg10.dtd">
<svg version="1.0" xmlns="http://www.w3.org/2000/svg"
 width="2704.000000pt" height="2704.000000pt" viewBox="0 0 2704.000000 2704.000000"
 preserveAspectRatio="xMidYMid meet">
<metadata>
Created by potrace 1.14, written by Peter Selinger 2001-2017
</metadata>
<g transform="translate(0.000000,2704.000000) scale(0.100000,-0.100000)"
fill="#000000" stroke="none">
<path d="M0 13520 l0 -13520 3750 0 3750 0 10 24 c5 13 15 28 23 33 7 4 42 44
76 87 74 94 228 248 332 332 80 65 233 174 245 174 4 0 15 6 23 14 9 8 50 32
91 54 41 21 113 60 160 87 46 26 159 85 250 131 137 70 174 84 219 86 l55 3 8
-38 c8 -37 6 -41 -40 -88 -26 -28 -49 -55 -51 -61 -2 -6 -20 -27 -41 -47 -20
-20 -59 -63 -86 -96 -27 -33 -52 -62 -55 -65 -9 -7 -119 -169 -119 -174 0 -3
-25 -46 -55 -96 -61 -98 -135 -243 -156 -302 -7 -21 -17 -38 -21 -38 -4 0 -8
-5 -8 -10 0 -7 70 -9 203 -8 l202 3 3 30 c9 86 147 390 311 685 23 41 56 104
73 140 17 36 40 83 51 105 25 48 127 182 190 249 25 26 63 74 84 105 21 31 43
61 48 68 6 6 39 52 75 103 67 93 214 275 260 320 14 14 26 29 27 34 0 4 27 37
60 73 128 144 185 190 226 185 15 -2 27 -9 27 -15 0 -21 -40 -88 -99 -166 -59
-79 -75 -103 -182 -278 -84 -136 -112 -187 -221 -403 -154 -305 -271 -613
-393 -1035 -25 -88 -50 -164 -56 -169 -34 -36 -28 -36 749 -36 l758 0 0 57
c-1 84 11 154 45 273 17 58 32 110 33 115 15 61 29 95 41 105 8 7 15 18 15 24
0 7 8 21 18 32 19 23 38 53 63 103 l17 35 5 -30 c4 -16 20 -110 37 -209 28
-160 31 -193 25 -300 -4 -66 -9 -123 -11 -127 -9 -14 -20 -9 -21 10 -7 86 -25
152 -42 152 -12 0 -36 -62 -61 -155 -11 -41 -20 -77 -20 -80 0 -3 721 -5 1601
-5 l1602 0 25 27 c14 16 41 61 60 102 19 41 56 111 83 156 l49 82 2 549 c2
560 -2 657 -39 899 -25 164 -20 458 8 414 5 -9 9 -10 9 -2 0 15 71 83 87 83 6
0 13 6 16 13 9 26 27 -125 27 -229 0 -60 4 -136 10 -169 34 -213 60 -1156 38
-1340 l-8 -60 23 25 c12 14 58 56 102 94 44 39 81 75 81 80 1 6 2 17 3 24 1 8
6 10 14 6 8 -6 8 -3 -1 9 -11 13 -11 22 -1 51 7 19 17 32 22 29 6 -3 7 -2 4 4
-7 11 12 81 27 102 6 7 11 21 11 30 3 44 6 52 14 47 5 -3 12 1 15 10 4 9 2 13
-5 8 -7 -4 -9 1 -5 15 3 11 9 30 12 41 3 11 10 18 15 14 5 -3 8 -2 7 3 -1 4 1
33 6 63 l8 55 13 -30 c14 -30 14 -30 9 -3 -6 28 9 40 20 16 3 -7 2 0 -1 16 -4
20 -2 27 5 22 13 -8 27 36 19 59 -4 8 -2 17 3 20 6 4 10 -1 10 -10 0 -9 5 -13
10 -10 6 3 7 17 4 30 -3 12 -1 26 5 30 6 3 9 10 6 15 -3 5 -1 11 5 15 5 3 10
1 10 -4 0 -6 7 -11 15 -11 12 0 14 -8 10 -32 -9 -50 14 -21 30 38 7 27 14 43
14 35 1 -18 -28 -124 -81 -296 -22 -71 -42 -138 -45 -147 -3 -10 -10 -15 -15
-12 -5 3 -8 0 -7 -7 1 -8 -3 -27 -9 -42 -7 -16 -12 -36 -12 -46 0 -9 -5 -22
-12 -29 -23 -23 7 -11 37 14 163 139 286 230 565 419 80 54 170 115 200 136
30 21 118 73 195 117 431 245 498 282 504 282 7 0 199 112 339 197 99 61 220
151 346 258 110 93 280 215 566 407 237 158 264 179 248 189 -7 5 -10 9 -7 9
4 0 3 19 -2 42 -4 24 -11 75 -15 113 -3 39 -10 80 -15 93 -5 13 -9 36 -9 52 0
16 -4 31 -10 35 -5 3 -7 11 -4 18 2 7 -2 37 -10 67 -8 30 -12 58 -10 62 3 5 2
13 -2 19 -4 7 -9 30 -11 51 -2 22 -7 47 -12 57 -6 10 -11 42 -12 72 -1 30 -5
59 -10 64 -4 6 -10 30 -12 55 -8 65 -24 140 -37 174 -6 16 -8 31 -6 34 3 2 1
13 -5 23 -8 15 -6 17 8 12 17 -6 17 -5 1 13 -14 16 -14 22 -4 37 17 22 26 22
26 -2 0 -11 4 -22 9 -25 5 -3 10 -21 10 -38 2 -58 5 -78 12 -78 4 0 10 -17 14
-37 4 -21 15 -55 26 -77 10 -22 19 -45 19 -50 0 -6 14 -54 31 -106 18 -52 62
-214 99 -358 l67 -264 84 57 c46 32 116 81 154 110 39 29 95 68 125 87 30 19
113 72 184 118 90 58 139 84 162 85 18 0 41 8 51 16 10 9 27 19 38 22 14 5 11
0 -10 -18 -16 -14 -25 -25 -19 -25 6 0 17 7 24 15 7 8 21 15 31 15 24 0 33 18
18 36 -10 13 -15 13 -35 -1 -45 -29 -96 -56 -100 -52 -5 5 167 102 311 177 52
27 143 82 202 123 84 58 462 277 477 277 2 0 41 21 87 46 149 83 212 115 299
151 100 42 300 144 350 180 19 13 57 43 83 66 27 23 54 44 60 46 34 11 217
222 217 248 0 14 29 25 42 16 7 -4 9 2 6 15 -4 12 -2 22 3 22 5 0 9 -13 9 -28
0 -30 -20 -82 -32 -82 -5 0 -8 -6 -8 -12 0 -18 -86 -117 -144 -166 -55 -45
-234 -176 -255 -185 -14 -7 -30 -17 -34 -24 -5 -8 -12 -11 -17 -8 -5 3 -12 1
-15 -5 -4 -6 -46 -29 -93 -51 -117 -55 -305 -149 -317 -159 -5 -4 -27 -13 -47
-19 -21 -7 -38 -16 -38 -20 0 -5 -21 -16 -47 -26 -27 -10 -54 -23 -61 -28 -8
-6 -23 -13 -35 -14 -12 -2 -25 -9 -29 -16 -8 -13 -37 -16 -53 -6 -5 3 -28 -5
-50 -17 -29 -17 -35 -24 -20 -24 16 0 17 -2 5 -10 -9 -5 -17 -5 -20 0 -3 5
-20 0 -38 -10 -20 -12 -30 -25 -26 -32 4 -6 3 -8 -4 -5 -14 9 -43 -3 -36 -14
3 -5 0 -9 -6 -9 -6 0 -8 -5 -4 -11 4 -8 0 -8 -15 0 -17 10 -26 9 -44 -4 -12
-8 -22 -21 -22 -27 0 -6 -7 -13 -15 -15 -13 -4 -13 -3 0 7 13 10 13 11 0 7 -8
-2 -14 -11 -12 -21 2 -9 -2 -16 -8 -16 -6 0 -9 -3 -7 -7 3 -5 -9 -7 -26 -7
-37 2 -50 -4 -41 -17 4 -6 11 -6 20 2 8 6 17 9 20 6 8 -7 -70 -47 -93 -48 -16
0 -16 -1 1 -8 19 -7 18 -8 -5 -15 -13 -5 -27 -8 -31 -7 -5 1 -8 -3 -8 -7 0 -5
-21 -19 -46 -32 -25 -13 -56 -34 -67 -47 -12 -12 -26 -23 -32 -23 -5 0 -3 5 5
10 8 5 11 10 5 10 -19 0 -38 -18 -31 -29 4 -6 2 -11 -5 -11 -7 0 -21 -7 -31
-17 -20 -18 -25 -4 -5 16 10 10 9 11 -5 6 -10 -4 -18 -11 -18 -16 0 -4 -6 -6
-14 -3 -8 3 -17 1 -21 -5 -3 -6 -11 -11 -16 -11 -6 0 -7 5 -4 10 3 6 1 10 -4
10 -6 0 -11 -4 -11 -9 0 -17 20 -23 35 -11 8 6 19 9 26 5 17 -11 -120 -88
-158 -89 -22 -1 -28 -4 -22 -12 7 -8 -2 -18 -28 -31 -110 -57 -271 -150 -283
-163 -6 -7 -83 -57 -230 -150 -118 -75 -360 -236 -470 -314 -41 -29 -120 -83
-175 -121 -111 -76 -147 -102 -250 -175 -114 -81 -119 -84 -143 -108 -13 -12
-25 -22 -28 -22 -2 0 -19 -13 -37 -29 -121 -110 -406 -299 -607 -402 -52 -27
-99 -52 -105 -57 -5 -4 -26 -15 -45 -25 -19 -9 -53 -28 -75 -42 -38 -24 -114
-67 -125 -71 -3 -1 -15 -5 -27 -9 -13 -4 -23 -11 -23 -15 0 -4 -13 -13 -30
-20 -16 -7 -27 -16 -24 -21 3 -5 -2 -6 -10 -3 -10 4 -16 1 -16 -7 0 -7 -3 -9
-7 -6 -7 8 -87 -36 -120 -65 -12 -12 -27 -17 -34 -13 -7 5 -10 4 -6 -2 7 -12
-10 -29 -32 -35 -8 -2 -23 -11 -33 -21 -11 -10 -26 -16 -34 -13 -7 3 -13 1
-11 -4 1 -5 -10 -18 -24 -27 -49 -33 -134 -88 -138 -88 -1 0 -21 -17 -44 -37
-22 -21 -45 -38 -50 -38 -6 0 -28 -15 -51 -33 -23 -19 -52 -39 -65 -46 -55
-30 -342 -240 -430 -317 -20 -17 -74 -61 -121 -98 -109 -87 -170 -144 -170
-157 0 -6 -4 -8 -9 -5 -16 10 -221 -214 -271 -296 -46 -75 -120 -233 -120
-255 l0 -23 254 0 c234 0 288 5 255 25 -23 15 23 172 67 224 29 35 67 38 84 6
22 -42 -19 -218 -54 -231 -9 -3 -13 -10 -10 -15 7 -11 234 -10 294 1 l45 9
-42 -2 c-23 -1 -40 0 -39 3 30 69 52 100 72 100 13 0 26 5 29 10 3 6 14 10 23
10 10 0 13 -3 7 -8 -5 -4 -12 -29 -14 -57 -1 -27 -7 -52 -12 -53 -5 -2 -7 -8
-3 -13 7 -13 471 -12 479 1 3 6 1 10 -4 10 -19 0 -12 24 40 130 50 102 111
250 103 250 -2 0 1 12 6 27 9 26 9 27 -5 9 -19 -25 -19 -16 0 26 8 18 42 99
76 180 34 81 64 146 68 143 4 -2 7 6 7 18 -1 13 4 21 12 19 7 -1 15 6 19 15 4
10 12 22 20 26 7 4 13 15 13 22 0 8 5 15 11 15 6 0 8 7 5 16 -3 8 -2 13 3 10
5 -3 11 1 15 9 8 21 29 19 44 -6 11 -17 11 -23 0 -36 -7 -9 -12 -19 -10 -22 3
-5 -6 -60 -13 -81 -1 -3 -5 -18 -9 -35 -22 -86 -159 -390 -193 -427 -9 -10
-13 -18 -10 -18 22 0 -102 -274 -129 -284 -59 -23 23 -26 626 -26 l640 0 0 23
c0 12 13 47 28 77 16 30 70 134 120 230 117 226 172 349 261 595 88 240 111
295 125 295 6 0 20 21 31 46 25 58 49 81 40 38 -25 -114 -110 -364 -187 -549
-76 -182 -325 -670 -362 -710 -24 -25 -29 -36 -18 -40 7 -3 2272 -5 5033 -5
l5019 0 0 453 c0 360 -3 454 -13 454 -23 0 -98 56 -88 66 11 11 34 0 26 -14
-3 -5 0 -6 8 -4 7 3 22 -3 32 -15 10 -11 22 -20 27 -20 4 0 8 214 8 475 0 327
-3 475 -11 475 -17 0 -357 -235 -469 -324 -58 -46 -140 -116 -184 -155 -43
-39 -83 -68 -89 -64 -5 3 -7 2 -4 -4 9 -14 -80 -96 -94 -87 -8 4 -9 3 -5 -4 4
-7 2 -12 -3 -12 -6 0 -10 -4 -9 -8 2 -4 -33 -43 -77 -87 -44 -44 -66 -62 -49
-40 31 39 34 45 34 65 0 5 8 7 18 4 14 -5 14 -3 -2 10 -18 14 -15 21 7 17 5
-1 6 3 2 8 -3 6 3 15 14 20 10 6 24 24 29 41 6 16 14 30 17 30 3 0 4 -4 0 -9
-3 -5 -2 -12 3 -15 4 -2 9 11 10 30 2 19 -2 34 -8 34 -5 0 -10 -4 -10 -10 0
-5 -7 -10 -16 -10 -11 0 -14 6 -9 20 8 26 -7 26 -30 0 -10 -11 -22 -17 -26
-14 -5 3 -9 -2 -9 -10 0 -17 -42 -32 -61 -21 -8 5 -9 1 -4 -14 5 -15 2 -21
-10 -21 -8 0 -18 -7 -22 -16 -4 -10 -13 -14 -27 -10 -12 3 -28 1 -36 -4 -13
-9 -13 -10 0 -11 8 0 2 -5 -15 -10 -16 -5 -35 -7 -42 -5 -6 3 -13 -4 -16 -15
-7 -25 -27 -25 -27 0 0 23 -16 36 -25 21 -4 -6 -11 -8 -16 -5 -5 4 -9 0 -9 -7
0 -18 -46 -38 -59 -25 -6 6 -15 4 -27 -8 -11 -11 -28 -15 -46 -13 -15 3 -28 1
-28 -4 0 -4 7 -8 15 -8 19 0 19 -14 0 -30 -9 -7 -15 -8 -15 -2 0 15 -31 24
-45 12 -18 -15 -103 -22 -122 -11 -10 5 -26 3 -42 -5 -24 -13 -27 -12 -33 9
l-6 22 -1 -22 c-1 -27 -16 -30 -31 -6 -9 17 -11 17 -21 -1 -9 -15 -13 -16 -20
-5 -7 12 -10 11 -21 -2 -18 -23 -55 -30 -62 -13 -7 18 -42 18 -49 1 -5 -15
-133 -16 -174 -2 -18 6 -23 4 -23 -9 0 -10 5 -14 10 -11 6 3 10 1 10 -4 0 -14
-13 -14 -28 1 -14 14 -72 21 -72 8 0 -6 -4 -10 -10 -10 -5 0 -10 6 -10 14 0 9
-7 12 -19 9 -14 -4 -21 1 -24 19 -4 23 -4 23 -6 1 -1 -26 -11 -29 -29 -11 -9
9 -12 8 -12 -4 0 -14 -5 -15 -37 -6 -21 6 -40 14 -43 18 -9 14 -106 38 -133
33 -23 -4 -27 -2 -27 17 0 17 -4 20 -20 15 -12 -4 -20 -2 -20 5 0 7 -8 9 -22
4 -22 -7 -22 -6 -5 20 14 21 15 26 3 26 -8 0 -24 -12 -35 -26 -12 -15 -21 -21
-21 -15 0 7 -6 18 -12 25 -11 12 -16 12 -32 -2 -18 -16 -19 -16 -14 6 4 15 2
22 -8 22 -8 0 -14 -4 -14 -9 0 -5 -9 -7 -20 -4 -15 4 -19 2 -14 -10 3 -8 1
-18 -5 -22 -10 -5 -13 1 -10 21 0 4 -5 11 -13 15 -9 6 -7 9 10 9 26 0 29 15 6
28 -11 6 -13 11 -5 16 6 4 11 16 11 26 0 10 7 23 16 28 11 6 13 11 5 16 -6 4
-16 -4 -23 -21 -7 -15 -27 -41 -44 -58 -33 -33 -134 -155 -205 -250 -77 -102
-351 -524 -424 -650 -37 -66 -80 -138 -94 -160 -35 -56 -103 -137 -108 -131
-3 3 32 65 77 138 45 73 110 182 145 241 135 232 348 549 514 767 61 80 150
198 199 262 307 410 593 695 887 883 107 69 433 224 540 258 206 65 482 142
545 152 19 3 80 15 135 26 111 23 317 29 323 10 2 -6 20 -12 40 -12 l37 -2
-35 -6 -35 -7 37 -7 c21 -4 40 -11 42 -16 3 -4 -18 -1 -47 7 -65 17 -212 19
-292 3 -68 -14 -270 -68 -420 -111 -55 -16 -148 -43 -208 -60 -271 -76 -496
-189 -777 -388 -145 -104 -158 -124 -87 -143 101 -27 274 11 410 92 70 42 123
70 377 200 185 95 350 159 411 159 15 0 30 4 33 9 3 4 31 13 63 20 32 6 93 18
135 26 42 8 101 15 130 15 29 0 69 4 88 9 19 5 85 12 145 14 127 6 189 21 181
43 -4 11 1 13 19 10 l25 -5 0 12200 0 12199 -8025 0 c-7104 0 -8024 -2 -8019
-15 4 -11 -1 -15 -16 -15 -19 0 -20 2 -10 15 11 13 7 15 -29 15 -28 0 -40 -4
-35 -11 7 -11 -146 -7 -165 5 -5 3 -12 0 -14 -6 -4 -10 -6 -10 -6 0 -1 9 -158
12 -752 12 -442 0 -748 -4 -745 -9 8 -12 -245 -18 -319 -7 -33 5 -2018 10
-4482 13 l-4423 3 0 -13520z m12430 13473 c0 -9 -157 -97 -247 -138 -35 -16
-63 -31 -63 -34 0 -4 -12 -12 -27 -18 -33 -15 -185 -137 -312 -251 -33 -30
-224 -214 -406 -391 -182 -176 -330 -281 -470 -331 -40 -15 -151 -72 -180 -94
-42 -31 -55 -38 -55 -30 0 19 102 99 184 144 101 57 479 334 590 435 39 35
164 155 278 268 113 113 248 237 299 277 90 69 252 157 300 162 13 2 29 8 34
15 22 25 75 15 75 -14z m535 17 c3 -6 0 -12 -7 -14 -7 -2 -31 -8 -53 -14 -196
-50 -340 -108 -535 -215 -145 -80 -253 -151 -329 -216 -94 -81 -224 -181 -235
-181 -6 0 -27 -17 -46 -36 -39 -40 -98 -85 -86 -66 9 15 325 290 409 356 107
84 308 212 422 269 93 47 234 101 310 120 37 9 144 7 150 -3z m1485 -10 c-36
-12 -80 -12 -80 0 0 6 24 10 53 9 41 -1 47 -3 27 -9z m77 4 c-3 -3 -12 -4 -19
-1 -8 3 -5 6 6 6 11 1 17 -2 13 -5z m-6732 -43 c-4 -24 -87 -107 -114 -116
-12 -3 -21 -11 -21 -16 0 -5 -4 -9 -10 -9 -5 0 -10 11 -10 24 0 28 48 83 100
115 43 26 60 27 55 2z m1099 -3 c-5 -9 -2 -9 9 1 25 20 20 -1 -6 -25 -12 -12
-58 -93 -101 -180 -80 -159 -173 -315 -197 -329 -23 -15 -2 63 47 168 26 56
63 138 84 182 37 82 129 195 157 195 9 0 11 -5 7 -12z m676 -7 c0 -11 -23 -36
-61 -62 -131 -95 -178 -135 -289 -248 -63 -64 -147 -138 -187 -164 -40 -26
-109 -77 -154 -112 -45 -36 -88 -65 -96 -65 -20 0 -31 39 -19 67 6 12 14 23
19 23 4 0 7 6 7 13 1 27 94 101 330 259 102 69 237 166 299 216 115 92 151
109 151 73z m-1426 -13 c8 -13 5 -23 -14 -43 -30 -31 -48 -32 -56 -1 -13 53
42 88 70 44z m3671 -132 c-18 -19 -31 -37 -28 -40 4 -3 2 -6 -4 -6 -5 0 -23
-11 -39 -25 -16 -14 -34 -25 -40 -25 -7 0 -15 -7 -18 -16 -3 -8 -11 -12 -17
-8 -7 4 -9 3 -5 -4 8 -13 -33 -44 -47 -35 -6 3 -7 2 -4 -4 8 -12 -20 -53 -35
-53 -7 0 -3 7 8 16 18 14 18 15 -4 4 -16 -8 -22 -17 -17 -28 3 -9 3 -14 0 -10
-4 3 -19 -6 -33 -21 -45 -45 -124 -98 -228 -152 -54 -28 -129 -69 -166 -90
-36 -22 -69 -39 -73 -39 -3 0 -18 -8 -33 -19 -15 -10 -61 -40 -102 -67 -69
-45 -230 -187 -230 -204 0 -4 -17 -25 -37 -47 -21 -22 -99 -107 -173 -189
-180 -198 -240 -256 -329 -322 -59 -43 -197 -158 -231 -192 -45 -45 -210 -167
-305 -225 -30 -19 -110 -84 -179 -147 -16 -15 -32 -25 -35 -22 -11 11 124 123
249 208 69 47 170 124 225 170 55 47 152 128 215 180 159 130 270 253 454 498
63 85 221 235 337 320 82 60 125 85 315 183 74 39 183 106 250 156 65 48 122
85 128 82 5 -3 6 -1 3 4 -7 11 85 90 189 163 70 49 85 51 39 6z m2366 10 c-12
-13 -23 -30 -25 -37 -3 -26 -17 -38 -33 -32 -11 4 -14 3 -9 -5 8 -13 -44 -72
-63 -72 -6 0 -11 -4 -11 -8 0 -4 -12 -9 -26 -10 -22 -2 -25 0 -14 13 7 8 16
13 20 10 5 -3 12 5 16 17 3 12 18 31 31 42 14 12 46 40 71 63 50 46 80 59 43
19z m-6263 -38 c17 -17 15 -34 -9 -112 -17 -53 -19 -73 -11 -92 9 -19 8 -25
-4 -32 -14 -8 -20 -55 -16 -139 l2 -32 30 17 c27 15 32 15 41 2 23 -35 -27
-178 -84 -240 -13 -14 -48 -79 -79 -146 -30 -66 -73 -145 -94 -175 -22 -30
-52 -74 -66 -99 -15 -25 -38 -57 -52 -72 -15 -16 -26 -39 -26 -55 0 -19 -10
-37 -30 -55 -16 -14 -30 -25 -30 -22 0 15 43 114 50 114 5 0 12 10 15 23 4 12
24 49 44 82 21 33 59 103 85 155 26 52 59 116 74 141 80 138 101 178 116 222
18 53 21 87 7 87 -4 0 -29 16 -55 36 -45 34 -47 38 -41 73 4 24 22 51 51 81
24 25 44 49 44 53 0 4 -11 7 -24 7 -42 0 -43 44 -3 125 33 67 43 75 65 53z
m1717 -42 c-11 -7 -108 -61 -215 -119 -107 -58 -215 -117 -240 -131 -57 -32
-72 -33 -35 -2 70 60 449 266 489 266 20 0 20 0 1 -14z m425 10 c0 -3 -4 -8
-10 -11 -5 -3 -10 -1 -10 4 0 6 5 11 10 11 6 0 10 -2 10 -4z m-1400 -33 c0
-10 -32 -74 -70 -143 -39 -68 -70 -130 -70 -137 0 -7 -4 -13 -10 -13 -5 0 -13
-18 -16 -40 -6 -34 -44 -89 -44 -64 0 5 -5 2 -11 -6 -8 -11 -12 -12 -16 -2 -6
15 -59 16 -69 0 -5 -8 -10 -6 -14 7 -7 21 8 56 34 83 25 24 83 108 140 199 27
43 62 90 78 106 32 31 68 36 68 10z m1364 -7 c-8 -20 -80 -76 -114 -88 -17 -5
-30 -13 -30 -17 0 -4 -11 -13 -25 -19 -15 -7 -25 -8 -25 -2 0 6 5 10 10 10 6
0 20 9 32 20 12 11 30 20 40 20 11 0 38 20 60 45 41 45 62 58 52 31z m-210
-151 c-4 -8 -12 -15 -19 -15 -7 0 -25 -10 -40 -22 -15 -12 -26 -16 -24 -9 3 7
18 20 34 29 17 9 32 20 33 25 7 14 21 7 16 -8z m-314 -19 c-6 -8 -35 -30 -63
-48 -46 -28 -119 -83 -153 -113 -6 -5 -40 -35 -74 -65 -35 -30 -72 -65 -83
-77 -11 -12 -24 -20 -28 -17 -5 3 5 19 21 36 17 17 30 34 30 38 0 18 199 180
268 217 82 45 102 52 82 29z m179 -69 c-41 -31 -203 -178 -300 -272 -117 -113
-179 -167 -136 -118 9 11 17 23 17 27 0 8 85 112 128 156 66 68 279 226 290
215 3 -3 3 -6 1 -8z m4290 -20 c-19 -18 -37 -32 -41 -29 -5 2 -8 -2 -8 -7 0
-6 -5 -11 -10 -11 -6 0 -23 -11 -38 -25 -15 -14 -31 -25 -36 -25 -5 0 -18 -7
-28 -17 -19 -17 -44 -33 -88 -55 -14 -7 -28 -17 -32 -23 -5 -6 -8 -6 -8 0 0 6
-3 5 -8 -1 -4 -6 -52 -41 -107 -79 -55 -37 -146 -103 -202 -146 -154 -119
-285 -201 -444 -279 -79 -39 -151 -75 -160 -80 -33 -18 -300 -120 -414 -158
-167 -57 -390 -113 -765 -192 -58 -12 -132 -29 -165 -37 -80 -20 -135 -31
-135 -27 0 14 105 49 265 89 346 84 814 216 990 280 255 92 434 195 732 420
66 50 163 115 216 145 54 30 160 92 238 138 140 82 267 152 277 152 3 0 -10
-15 -29 -33z m-6654 -122 c0 -37 -42 -63 -74 -45 -36 19 5 83 48 78 21 -2 26
-8 26 -33z m3525 -65 c8 0 24 -7 34 -15 38 -29 -9 -27 -73 4 -41 19 -56 31
-44 33 10 2 29 -2 43 -9 14 -7 32 -13 40 -13z m76 -8 c-10 -2 -22 0 -28 6 -6
6 0 7 19 4 21 -5 23 -7 9 -10z m-292 -56 c-7 -18 -100 -64 -204 -102 -41 -15
-84 -33 -95 -41 -11 -7 -26 -13 -34 -13 -27 0 48 47 102 64 28 9 93 36 142 60
50 25 91 45 92 45 1 1 0 -6 -3 -13z m-3551 -58 c-4 -7 -6 -25 -4 -40 1 -16 -2
-28 -7 -28 -6 0 -22 -21 -38 -47 -34 -60 -29 -55 -58 -58 -41 -5 -50 17 -27
62 26 50 57 83 92 95 16 5 29 14 29 19 0 5 5 9 11 9 6 0 7 -6 2 -12z m1177
-64 c0 -11 -5 -14 -16 -10 -9 3 -18 6 -20 6 -3 0 -2 5 1 10 10 16 35 12 35 -6z
m423 -59 c-19 -34 -195 -215 -209 -215 -10 0 -12 5 -7 14 18 32 218 237 221
227 2 -5 -1 -17 -5 -26z m-457 -23 c-17 -34 -44 -58 -53 -48 -4 3 2 13 14 21
11 8 26 29 34 46 7 18 15 27 17 21 2 -6 -4 -24 -12 -40z m2054 34 c0 -2 -7 -7
-16 -10 -8 -3 -12 -2 -9 4 6 10 25 14 25 6z m-2990 -141 c0 -36 -43 -148 -59
-153 -6 -2 -16 8 -22 22 l-12 25 -21 -31 c-21 -32 -44 -37 -38 -8 8 42 46 120
58 120 8 0 17 8 21 18 3 9 15 27 26 39 26 29 47 14 47 -32z m4860 -20 c0 -2
-10 -9 -22 -15 -22 -11 -22 -10 -4 4 21 17 26 19 26 11z m-71 -39 c-2 -2 -15
-9 -29 -15 -24 -11 -24 -11 -6 3 16 13 49 24 35 12z m-3159 -36 c0 -5 -12 -10
-28 -10 -15 0 -36 -6 -47 -14 -11 -7 -31 -17 -45 -21 -45 -14 -134 -58 -200
-100 -126 -81 -329 -265 -381 -347 -18 -28 -35 -46 -37 -40 -4 13 83 133 149
206 65 72 204 181 284 223 157 83 305 133 305 103z m3086 2 c-2 -4 -26 -18
-53 -32 -26 -13 -58 -31 -69 -40 -12 -9 -41 -22 -65 -30 -24 -8 -47 -19 -51
-25 -5 -6 -8 -4 -8 5 0 12 -2 12 -9 2 -4 -8 -18 -12 -30 -10 -13 2 34 27 132
69 83 37 153 67 155 68 2 1 1 -3 -2 -7z m-3586 -10 c0 -5 -11 -19 -25 -32 -29
-27 -32 -21 -9 15 16 24 34 33 34 17z m1435 -72 c13 -6 -18 -9 -87 -9 -66 -1
-108 3 -108 9 0 12 166 12 195 0z m1830 -60 c-3 -5 -12 -10 -18 -10 -7 0 -6 4
3 10 19 12 23 12 15 0z m421 1 c-10 -16 -160 -69 -254 -90 -98 -22 -211 -38
-202 -28 3 3 75 21 160 41 85 19 184 46 220 60 74 27 83 30 76 17z m-1962 -63
c-3 -4 -11 -8 -18 -8 -8 0 -51 -20 -97 -44 -46 -24 -131 -58 -189 -76 -120
-38 -165 -58 -235 -109 -61 -43 -66 -49 -84 -83 -7 -14 -36 -48 -64 -75 -46
-44 -48 -45 -27 -13 13 19 39 52 59 73 41 44 36 46 -25 11 -25 -15 -47 -24
-50 -21 -3 3 9 13 28 22 18 10 53 34 78 55 72 59 209 138 290 165 41 14 91 36
111 50 48 31 137 57 216 61 7 0 10 -3 7 -8z m-3599 -87 c-8 -89 -14 -137 -21
-169 -3 -15 9 -46 35 -90 124 -214 148 -291 163 -520 10 -140 9 -180 -1 -210
-64 -179 -74 -185 -68 -38 6 137 -8 157 -16 24 -4 -57 -14 -128 -22 -158 -28
-103 -83 -381 -100 -505 -9 -70 -44 -204 -60 -234 l-14 -26 0 30 c0 17 4 54 8
83 4 29 6 54 4 56 -2 2 -6 35 -8 72 -5 87 9 201 41 327 44 176 66 342 59 442
-4 67 -1 105 11 150 9 33 18 77 21 98 3 20 9 37 14 37 16 0 30 -51 45 -160
l13 -105 -4 100 c-5 129 -26 196 -125 395 -95 190 -97 198 -71 232 20 25 20
58 0 58 -27 0 9 104 57 167 37 49 47 34 39 -56z m790 50 c3 -10 0 -30 -6 -45
-16 -34 -42 -16 -33 23 12 46 28 56 39 22z m319 -34 c-3 -9 -12 -17 -20 -17
-17 0 -17 5 -3 32 13 24 33 10 23 -15z m1331 -32 c-28 -13 -77 -36 -110 -51
-74 -34 -205 -111 -225 -133 -8 -9 -23 -22 -32 -29 -14 -11 -16 -11 -11 8 14
52 166 148 317 201 101 35 125 37 61 4z m2170 -44 c-40 -56 -151 -162 -212
-204 -48 -33 -260 -121 -353 -147 -36 -10 -96 -27 -135 -39 -38 -12 -104 -28
-145 -36 -213 -39 -282 -60 -425 -129 -60 -30 -111 -53 -113 -51 -4 3 144 93
197 120 42 21 170 59 309 90 139 32 436 118 521 152 115 45 173 85 281 190 58
57 106 103 107 103 2 0 -13 -22 -32 -49z m-3052 17 c4 -12 4 -24 1 -27 -6 -7
-24 20 -24 37 0 21 17 13 23 -10z m-639 -146 c-72 -70 -141 -142 -153 -159
-25 -37 -41 -42 -41 -14 0 10 11 26 25 35 13 9 43 43 67 76 23 33 45 60 49 60
3 0 23 15 43 34 42 40 116 94 131 95 6 0 -49 -57 -121 -127z m2376 114 c0 -3
-4 -8 -10 -11 -5 -3 -10 -1 -10 4 0 6 5 11 10 11 6 0 10 -2 10 -4z m-2380 -21
c0 -12 -24 -55 -32 -55 -11 0 -10 17 2 41 9 17 30 27 30 14z m495 -41 c26 -9
64 -33 84 -53 45 -45 142 -174 165 -219 29 -56 10 -47 -32 16 -45 65 -167 192
-186 192 -7 0 -17 5 -24 12 -6 6 -17 13 -24 14 -7 1 -35 7 -62 13 -52 12 -136
2 -209 -25 -71 -27 -62 -13 18 26 70 35 89 40 151 40 40 0 91 -7 119 -16z
m9971 -31 c-63 -73 -186 -196 -191 -192 -11 11 144 199 164 199 5 0 11 6 14
13 2 7 14 13 24 14 17 1 16 -3 -11 -34z m-10625 -32 c-6 -11 -11 -37 -11 -58
0 -21 -9 -53 -20 -71 -11 -18 -20 -39 -20 -48 0 -8 -7 -26 -16 -39 -11 -16
-12 -25 -5 -25 10 0 -104 -182 -160 -253 l-21 -28 -15 21 c-12 17 -14 45 -11
125 2 57 7 107 11 112 12 11 24 -15 32 -66 10 -75 14 -84 32 -70 16 14 53 82
53 98 0 6 22 57 49 113 26 57 52 114 56 128 4 14 13 32 20 40 7 8 16 31 21 50
6 28 9 30 12 13 2 -12 -2 -31 -7 -42z m139 -129 c0 -4 -10 -13 -22 -21 -23
-14 -23 -14 -4 8 20 22 26 25 26 13z m-2101 -74 c-11 -21 -21 -55 -36 -131 -3
-18 2 -46 16 -75 25 -56 71 -282 71 -349 0 -71 14 -108 53 -143 36 -31 67
-101 67 -149 0 -14 15 -87 34 -161 78 -305 101 -542 69 -719 l-6 -34 -22 59
c-12 33 -28 93 -34 134 -21 129 -53 285 -62 295 -5 5 -9 -3 -10 -20 -2 -46
-24 61 -39 185 -25 208 -46 282 -101 352 -29 36 -35 39 -68 33 -24 -4 -43 -1
-56 9 -29 21 -24 122 12 229 27 79 28 86 18 177 -16 144 1 220 64 297 30 37
47 43 30 11z m1979 -46 c-83 -87 -324 -425 -353 -496 -8 -19 -20 -38 -26 -42
-25 -15 2 61 45 130 111 178 346 469 364 452 3 -4 -10 -23 -30 -44z m1932 -95
c-31 -44 -83 -97 -110 -112 -8 -4 -2 7 15 26 42 48 119 129 123 129 2 0 -11
-19 -28 -43z m-1893 -68 c-160 -149 -293 -343 -417 -604 -82 -173 -141 -340
-203 -581 -50 -196 -91 -313 -104 -300 -3 3 2 24 12 48 25 63 32 87 70 258 56
249 110 392 262 695 94 186 161 288 261 395 75 81 188 179 206 180 5 0 -34
-41 -87 -91z m-489 -219 c4 -28 -17 -100 -30 -100 -9 0 -11 74 -2 108 8 28 28
23 32 -8z m-937 -94 c14 8 11 -40 -6 -90 -8 -24 -26 -104 -40 -178 -24 -126
-52 -228 -64 -228 -10 0 -2 263 9 315 20 87 79 210 88 184 2 -5 8 -7 13 -3z
m-777 -118 c2 -62 9 -86 44 -158 58 -121 119 -308 137 -424 9 -54 15 -105 13
-114 -2 -8 -30 28 -64 79 -89 137 -98 154 -142 264 l-40 100 8 140 c11 192 39
264 44 113z m1682 -52 c-4 -31 -12 -59 -18 -62 -8 -5 -9 3 -4 27 4 19 10 49
13 67 9 53 16 28 9 -32z m-46 -136 c-16 -31 -23 -19 -9 16 6 16 13 24 16 17 2
-7 -1 -22 -7 -33z m-105 -203 c-41 -86 -75 -161 -75 -166 0 -5 -4 -13 -10 -16
-10 -6 1 27 40 125 26 67 110 223 116 217 3 -2 -29 -75 -71 -160z m-1725 -51
c0 -3 -5 -17 -11 -33 -6 -15 -15 -61 -20 -102 -13 -117 22 -296 114 -576 42
-126 82 -254 89 -283 7 -29 17 -53 23 -54 5 0 53 87 106 194 53 106 103 193
109 193 7 0 34 -52 59 -115 51 -127 105 -218 146 -246 14 -11 45 -33 68 -49
25 -18 57 -32 77 -33 19 -1 46 -3 60 -5 36 -3 37 32 2 130 -16 45 -26 87 -21
94 10 16 37 -28 53 -88 32 -117 75 -203 102 -203 9 0 39 24 68 53 76 77 182
158 199 151 23 -8 29 -76 12 -124 -8 -23 -15 -58 -15 -78 0 -38 38 -152 51
-152 24 0 -76 -243 -111 -270 -11 -8 -37 -49 -58 -90 -39 -77 -50 -85 -89 -62
-19 10 -23 10 -23 0 -1 -8 -5 -7 -14 5 -26 34 -43 23 -100 -70 -21 -34 -44
-64 -51 -67 -18 -7 -48 -64 -41 -81 3 -8 -2 -11 -15 -8 -24 7 -36 -22 -18 -43
11 -14 10 -19 -9 -34 -12 -10 -22 -26 -22 -35 0 -17 1 -17 47 2 10 4 10 -2 2
-26 -6 -17 -18 -31 -26 -31 -10 0 -13 6 -9 16 5 13 2 15 -13 11 -11 -3 -25 1
-32 9 -14 17 -29 9 -29 -17 0 -10 -5 -19 -11 -19 -8 0 -7 -5 2 -16 11 -14 7
-21 -29 -54 -44 -41 -48 -50 -32 -66 7 -7 5 -17 -6 -30 -15 -18 -15 -18 -9 9
10 46 -15 29 -65 -46 -25 -37 -48 -67 -52 -67 -5 0 -8 47 -8 104 0 190 -35
258 -195 380 -87 66 -107 86 -131 130 -26 47 -64 166 -64 199 0 16 19 109 41
207 l42 177 -61 114 c-120 227 -223 504 -242 652 -9 66 -9 104 0 155 14 80
102 272 126 272 8 0 12 5 9 10 -3 6 1 10 9 10 9 0 16 -2 16 -4z m769 -267 c12
-96 13 -212 1 -249 -4 -14 -9 -23 -10 -20 -5 16 -26 387 -21 395 7 13 17 -28
30 -126z m811 -45 c-30 -131 -59 -284 -78 -411 -10 -61 -21 -115 -25 -119 -17
-17 -5 96 28 263 31 164 45 222 77 326 20 66 19 32 -2 -59z m301 -90 c-6 -28
-9 -32 -10 -14 -1 30 11 79 16 64 2 -6 -1 -28 -6 -50z m-1370 -51 c8 -21 49
-389 49 -441 0 -8 -5 -12 -11 -10 -20 7 -96 273 -105 369 -6 63 -6 66 21 87
35 27 33 27 46 -5z m929 -137 c0 -35 -5 -58 -14 -66 -8 -6 -20 -27 -26 -46
-13 -38 -33 -47 -26 -11 25 116 38 172 42 179 13 20 24 -7 24 -56z m156 -198
c-29 -84 -47 -121 -56 -112 -6 6 5 40 28 86 41 84 52 94 28 26z m-226 -477 c0
-22 -16 -36 -24 -22 -8 12 3 41 15 41 5 0 9 -9 9 -19z m2515 -43 c-18 -29 -59
-61 -133 -105 -107 -65 -169 -88 -423 -157 -173 -47 -289 -86 -352 -118 -22
-11 -41 -17 -44 -14 -10 10 180 96 267 122 96 28 213 63 250 74 14 5 48 14 75
21 85 22 180 65 268 123 47 30 88 60 92 65 3 6 8 11 11 11 2 0 -2 -10 -11 -22z
m6645 -67 c0 -12 -20 -25 -27 -18 -7 7 6 27 18 27 5 0 9 -4 9 -9z m-8308 -163
c14 -13 28 -31 31 -40 4 -10 14 -18 23 -18 9 0 25 -11 36 -25 11 -14 26 -25
35 -25 13 0 13 -3 3 -15 -7 -8 -10 -22 -6 -30 3 -10 -1 -15 -11 -15 -15 0 -16
-1 -1 -12 15 -12 15 -17 -4 -58 -11 -25 -24 -54 -30 -65 -45 -82 -58 -109 -58
-119 0 -6 -14 -24 -30 -40 -17 -16 -30 -35 -30 -42 0 -7 -10 -22 -22 -34 -12
-11 -19 -20 -15 -20 4 0 -3 -17 -16 -37 -29 -48 -64 -123 -73 -157 -3 -14 -10
-26 -15 -26 -5 0 -9 -5 -9 -11 0 -7 -20 -54 -45 -107 -25 -52 -45 -103 -45
-113 0 -11 -4 -19 -8 -19 -12 0 -42 -56 -35 -64 4 -4 -3 -9 -15 -13 -12 -3
-22 -11 -22 -18 0 -7 -6 -15 -14 -18 -15 -6 -27 -65 -15 -72 16 -11 0 -56 -45
-124 -26 -39 -55 -75 -64 -81 -9 -5 -14 -10 -10 -10 3 0 -18 -23 -47 -52 -30
-29 -53 -55 -52 -58 4 -9 -69 -75 -82 -74 -6 1 -18 2 -28 3 -9 0 -14 4 -10 7
3 4 -4 14 -15 24 -29 23 -34 120 -12 197 8 29 13 56 11 60 -3 5 1 19 8 32 7
14 11 41 8 60 -5 35 29 147 121 406 19 54 33 101 31 103 -11 11 173 319 198
330 4 2 7 10 7 18 0 8 13 39 29 68 17 29 35 74 42 100 6 26 17 50 24 52 7 3
44 36 82 73 51 50 79 70 106 75 21 4 37 11 37 16 0 17 26 11 52 -12z m12154
-17 c-9 -10 -16 -23 -16 -30 0 -6 -7 -14 -15 -17 -8 -4 -15 -10 -15 -16 0 -19
-299 -298 -319 -298 -4 0 -19 -10 -33 -22 -14 -13 -35 -30 -48 -38 -12 -8 -29
-21 -36 -28 -8 -7 -18 -11 -24 -7 -6 3 -7 -1 -4 -9 3 -9 1 -16 -5 -16 -6 0
-11 9 -11 20 0 13 7 20 19 20 11 0 21 9 24 21 3 12 10 18 16 15 5 -4 12 3 16
14 3 11 9 19 13 17 4 -1 28 19 53 46 25 26 49 47 54 47 4 0 18 11 30 24 13 14
25 22 29 19 3 -3 10 6 17 20 7 15 17 23 25 20 8 -3 14 0 14 6 0 15 144 161
159 161 6 0 11 7 11 15 0 9 11 21 25 27 14 6 25 16 26 22 0 6 3 5 6 -2 3 -7
-2 -21 -11 -31z m-14370 -41 c-18 -206 -18 -203 3 -237 11 -18 51 -53 88 -77
74 -48 115 -88 159 -155 98 -149 109 -175 123 -289 10 -83 1 -205 -25 -307
-26 -107 -68 -240 -76 -243 -4 -2 -21 -24 -38 -49 -33 -48 -53 -112 -32 -99 7
4 12 13 12 21 0 14 53 75 65 75 14 0 -7 -55 -27 -71 -20 -16 -20 -17 -3 -46
18 -30 17 -31 -4 -62 -26 -36 -7 -45 22 -10 10 11 21 19 23 16 10 -10 -26 -66
-46 -72 -23 -7 -25 -17 -9 -43 9 -14 8 -36 -5 -95 -9 -41 -18 -128 -20 -192
-2 -97 -6 -119 -19 -127 -10 -5 -17 -15 -17 -22 0 -16 -27 -29 -41 -20 -5 3
-9 0 -9 -5 0 -6 6 -11 13 -11 7 0 18 -9 25 -20 12 -19 11 -20 -14 -14 -24 6
-26 5 -19 -12 15 -32 10 -112 -8 -141 -11 -18 0 -33 25 -33 19 0 19 -1 -5 -20
-17 -14 -26 -33 -30 -62 -7 -63 -21 -110 -43 -143 -15 -23 -20 -25 -22 -12 -7
33 -35 12 -47 -34 -5 -19 -2 -28 9 -32 8 -3 18 -1 22 5 4 7 9 6 14 -2 4 -7 1
-21 -9 -32 -9 -10 -17 -29 -18 -41 -1 -12 -4 -35 -6 -52 -3 -16 -6 -38 -6 -49
-1 -14 -6 -17 -26 -12 -19 5 -25 3 -25 -11 0 -9 6 -24 13 -32 8 -9 20 -49 27
-88 11 -58 11 -84 1 -127 -11 -49 -34 -86 -46 -74 -10 9 -13 88 -4 88 17 0 9
26 -14 48 -18 17 -26 19 -36 9 -10 -9 -11 -9 -6 5 4 9 2 24 -3 34 -7 13 -11 7
-16 -26 -7 -47 7 -77 24 -50 5 8 12 12 15 9 11 -11 -8 -41 -31 -50 -20 -7 -24
-16 -24 -49 0 -53 27 -121 40 -100 5 8 13 11 17 6 4 -4 1 -13 -8 -19 -20 -15
-20 -45 0 -43 11 1 17 -9 19 -34 l3 -35 -19 23 c-10 13 -21 20 -25 16 -4 -4
-2 -13 3 -19 7 -9 6 -16 -5 -25 -12 -10 -19 -4 -42 35 -52 87 -54 88 -49 10 3
-38 9 -135 15 -215 16 -243 51 -470 82 -530 18 -34 40 -126 38 -159 0 -9 -14
11 -30 44 l-30 60 5 -100 c3 -62 11 -115 21 -140 15 -35 15 -38 1 -26 -21 18
-22 14 -37 -145 -14 -158 -7 -385 16 -509 22 -114 23 -130 8 -130 -22 0 -96
66 -153 137 -84 105 -218 234 -288 278 -34 22 -67 40 -72 40 -16 0 -211 192
-227 224 -12 24 -14 48 -9 115 8 111 26 182 107 421 50 149 90 299 100 378 5
35 13 159 19 275 10 197 26 383 36 399 2 3 9 141 14 305 8 233 14 317 29 385
11 48 25 97 31 108 30 55 71 308 80 490 6 102 14 210 19 240 22 128 24 166 8
216 -22 68 -24 94 -8 131 16 38 30 45 62 29 34 -16 47 -73 48 -201 1 -60 8
-148 17 -195 21 -111 20 -321 0 -475 -17 -124 -21 -285 -8 -285 23 1 31 32 51
195 39 331 43 389 45 640 1 232 -1 255 -21 320 -32 103 -38 168 -19 246 15 66
70 207 128 328 22 48 28 71 23 95 -28 138 -10 254 51 322 19 21 37 49 40 62 4
12 11 22 16 22 7 0 8 -25 4 -70z m1248 40 c-9 -16 -20 -30 -25 -30 -16 0 -10
39 9 49 28 17 31 13 16 -19z m3556 -30 c0 -5 -4 -10 -10 -10 -5 0 -10 5 -10
10 0 6 5 10 10 10 6 0 10 -4 10 -10z m-3603 -62 c22 -25 6 -41 -18 -17 -14 14
-18 26 -12 47 6 23 8 24 11 7 2 -11 11 -28 19 -37z m8733 -2 c0 -2 -7 -6 -15
-10 -8 -3 -15 -1 -15 4 0 6 7 10 15 10 8 0 15 -2 15 -4z m-7025 -66 c-3 -5
-12 -10 -18 -10 -7 0 -6 4 3 10 19 12 23 12 15 0z m-35 -15 c0 -2 -10 -9 -22
-15 -22 -11 -22 -10 -4 4 21 17 26 19 26 11z m-1254 -52 c3 -34 1 -43 -11 -43
-19 0 -38 46 -29 72 11 35 36 16 40 -29z m1184 13 c0 -2 -8 -10 -17 -17 -16
-13 -17 -12 -4 4 13 16 21 21 21 13z m-40 -30 c0 -2 -8 -10 -17 -17 -16 -13
-17 -12 -4 4 13 16 21 21 21 13z m-1812 -19 c7 -8 7 -18 1 -27 -8 -13 -10 -13
-19 0 -21 32 -5 55 18 27z m167 -21 c0 -12 -10 -23 -28 -29 -41 -13 -55 5 -26
32 27 25 54 24 54 -3z m-247 -60 c3 -12 -1 -17 -10 -14 -7 3 -15 13 -16 22 -3
12 1 17 10 14 7 -3 15 -13 16 -22z m122 0 c0 -3 -4 -8 -10 -11 -5 -3 -10 -1
-10 4 0 6 5 11 10 11 6 0 10 -2 10 -4z m-165 -127 c-13 -25 -19 -28 -31 -18
-20 16 -17 31 5 24 12 -3 21 0 25 10 3 8 8 15 11 15 3 0 -2 -14 -10 -31z
m3945 -68 c12 -24 13 -54 1 -47 -13 9 -32 66 -21 66 5 0 14 -9 20 -19z m-3616
-16 c4 -10 -1 -15 -14 -15 -13 0 -18 5 -14 15 4 8 10 15 14 15 4 0 10 -7 14
-15z m3481 -10 c0 -5 -8 -11 -17 -12 -10 -2 -18 3 -18 10 0 8 8 13 18 12 9 0
17 -5 17 -10z m-3925 -25 c0 -11 -7 -20 -15 -20 -8 0 -15 9 -15 20 0 11 7 20
15 20 8 0 15 -9 15 -20z m0 -54 c0 -2 3 -11 6 -19 3 -10 -3 -17 -20 -21 -14
-3 -25 -11 -23 -17 1 -7 -4 -14 -11 -16 -12 -5 -11 18 4 65 3 11 44 18 44 8z
m122 -18 c-12 -12 -35 -1 -27 12 3 5 13 6 21 3 10 -4 12 -9 6 -15z m246 -10
c16 -16 15 -28 -3 -28 -8 0 -15 2 -15 4 0 2 -3 11 -6 20 -7 19 7 21 24 4z
m1127 -55 c-96 -95 -152 -198 -224 -413 -43 -131 -92 -215 -186 -317 -122
-135 -239 -247 -243 -235 -5 17 23 51 157 187 163 166 190 206 231 330 59 183
127 327 188 400 23 28 119 105 131 105 3 0 -21 -26 -54 -57z m-1548 -43 c11 0
14 -6 10 -21 -3 -12 -1 -29 5 -39 9 -14 7 -24 -10 -48 -12 -16 -22 -44 -22
-62 0 -18 -7 -44 -14 -58 -31 -56 -56 -126 -56 -153 0 -16 -4 -29 -10 -29 -5
0 -7 7 -4 15 4 8 1 15 -5 15 -18 0 -13 26 20 95 17 36 29 72 26 79 -3 8 -2 17
2 22 4 5 18 37 30 71 21 60 21 113 -1 113 -5 0 -6 5 -2 12 6 9 9 9 12 0 2 -7
11 -12 19 -12z m-52 -46 c-8 -20 -15 -51 -15 -70 0 -33 -30 -78 -38 -55 -2 6
-8 11 -13 11 -16 0 -10 -23 12 -46 20 -22 20 -22 1 -60 -11 -22 -23 -59 -27
-84 -11 -76 -12 -76 -50 -72 -24 3 -42 -1 -54 -13 -24 -21 -36 -4 -20 27 7 13
29 47 50 77 33 46 39 62 39 105 0 28 7 62 15 76 7 14 20 39 28 55 17 34 63 85
78 85 5 0 2 -16 -6 -36z m-85 -5 c-7 -11 -14 -18 -17 -15 -3 3 0 12 7 21 18
21 23 19 10 -6z m-44 -64 c-11 -37 -26 -47 -26 -18 0 13 26 53 35 53 1 0 -3
-16 -9 -35z m159 -195 c3 -5 1 -10 -4 -10 -6 0 -11 5 -11 10 0 6 2 10 4 10 3
0 8 -4 11 -10z m-120 -150 c3 -5 -1 -10 -9 -10 -9 0 -16 5 -16 10 0 6 4 10 9
10 6 0 13 -4 16 -10z m-67 -51 c-2 -6 -22 -17 -43 -25 -48 -16 -45 -16 -45 -5
0 4 17 15 38 24 46 19 55 20 50 6z m-118 -49 c-14 -11 -29 -20 -35 -20 -5 0 1
9 15 20 14 11 30 20 35 20 6 0 -1 -9 -15 -20z m660 -13 c0 -5 -7 -6 -16 -3 -9
3 -18 6 -20 6 -2 0 -4 7 -4 15 0 13 3 13 20 3 11 -7 20 -17 20 -21z m-550 -1
c0 -16 -18 -31 -27 -22 -8 8 5 36 17 36 5 0 10 -6 10 -14z m-42 -53 c-2 -11
-11 -17 -22 -15 -25 5 -66 -36 -66 -65 0 -13 -4 -23 -10 -23 -17 0 2 64 28 93
30 31 76 38 70 10z m642 -36 l-1 -32 -13 30 c-14 31 -11 50 5 40 5 -4 9 -21 9
-38z m-659 -30 c-8 -8 -11 -7 -11 4 0 20 13 34 18 19 3 -7 -1 -17 -7 -23z
m14309 -87 c0 -15 -180 -193 -187 -186 -3 3 -12 -2 -19 -12 -13 -16 -13 -16
-14 1 0 11 8 21 19 24 10 3 23 14 29 26 6 12 11 17 11 10 1 -14 66 45 66 61 1
6 6 10 13 9 6 -2 16 6 22 17 6 11 17 20 24 20 8 0 16 9 19 20 5 21 17 28 17
10z m-14399 -126 c-9 -28 -9 -29 -10 -3 -1 14 2 29 6 32 11 12 13 2 4 -29z
m169 -109 c0 -14 -4 -25 -10 -25 -11 0 -14 33 -3 43 11 11 13 8 13 -18z
m14000 15 c0 -5 -5 -10 -11 -10 -5 0 -7 5 -4 10 3 6 8 10 11 10 2 0 4 -4 4
-10z m-14150 -29 c0 -6 -4 -12 -8 -15 -5 -3 -9 1 -9 9 0 8 4 15 9 15 4 0 8 -4
8 -9z m6660 -4 c0 -15 -59 -52 -68 -42 -8 7 43 55 59 55 5 0 9 -6 9 -13z
m-6708 -120 l-21 -20 6 24 c7 27 26 44 32 28 2 -6 -6 -20 -17 -32z m228 -21
c0 -7 -9 -21 -20 -31 -11 -10 -20 -24 -20 -31 0 -8 -9 -19 -20 -26 -11 -7 -20
-23 -20 -36 0 -22 1 -22 25 -6 33 21 40 13 22 -23 -8 -15 -17 -41 -21 -56 -4
-15 -11 -25 -17 -22 -5 4 -22 -1 -36 -10 l-26 -17 8 28 c8 33 10 44 20 134 9
81 19 100 50 100 13 0 27 5 30 10 8 13 25 3 25 -14z m-134 -23 c-2 -10 -7 -49
-11 -87 -5 -46 -10 -64 -16 -55 -5 8 -9 27 -9 43 0 26 -2 28 -27 21 l-27 -6
19 23 c35 42 69 78 73 78 2 0 1 -8 -2 -17z m13819 -10 c-6 -27 -19 -40 -200
-208 -122 -113 -135 -126 -135 -139 0 -6 -5 -4 -10 4 -8 12 -10 12 -10 1 0
-17 -61 -81 -77 -81 -7 0 -13 -5 -13 -11 0 -15 -47 -59 -54 -51 -3 3 -6 0 -6
-6 0 -16 -41 -52 -59 -51 -11 0 -9 4 7 11 12 6 22 16 22 22 0 13 40 52 55 55
6 1 13 11 17 22 4 11 18 23 30 28 13 5 22 11 21 15 -4 11 9 36 17 31 4 -2 13
6 20 20 7 14 18 21 27 18 7 -3 13 -1 11 4 -7 21 310 340 341 343 2 0 0 -12 -4
-27z m-7319 -10 c-10 -10 -19 5 -10 18 6 11 8 11 12 0 2 -7 1 -15 -2 -18z
m-2721 -2 c0 -8 -4 -16 -10 -18 -16 -5 -38 14 -30 26 9 16 40 9 40 -8z m-3906
-115 c-9 -8 -10 -7 -5 7 3 10 7 26 7 35 1 9 4 6 6 -7 3 -13 -1 -28 -8 -35z
m85 -19 c15 -16 16 -24 7 -43 -11 -24 -34 -35 -26 -11 3 6 0 19 -5 27 -9 13
-12 13 -21 -2 -21 -37 -40 -9 -20 30 5 9 13 26 16 37 7 20 7 20 18 1 7 -11 20
-28 31 -39z m16 -165 c0 -9 -5 -24 -10 -32 -7 -11 -10 -6 -10 22 0 28 -5 38
-20 43 -23 7 -62 54 -55 66 8 12 95 -79 95 -99z m84 89 c3 -5 -1 -11 -9 -15
-9 -3 -15 0 -15 9 0 16 16 20 24 6z m-184 -87 c0 -19 -4 -34 -10 -34 -5 0 -10
-11 -10 -24 0 -13 -7 -26 -15 -30 -10 -4 -15 1 -15 14 0 11 4 20 8 20 4 0 9
19 11 42 1 23 4 45 7 50 11 17 24 -4 24 -38z m156 31 c12 -12 19 -12 34 -3 11
7 22 9 26 6 11 -12 -7 -28 -31 -28 -13 0 -27 -5 -31 -12 -5 -7 -11 -5 -21 7
-27 37 -8 62 23 30z m54 -82 c7 -16 15 -23 17 -15 6 15 23 16 23 1 0 -6 -9
-22 -20 -36 -11 -14 -20 -41 -20 -59 0 -23 -5 -34 -14 -34 -8 0 -24 -11 -34
-25 -11 -14 -23 -21 -26 -16 -9 14 3 38 28 54 23 15 34 71 16 82 -5 3 -10 22
-10 41 0 42 21 46 40 7z m-143 -58 c9 -19 14 -38 10 -41 -9 -9 -46 37 -47 59
0 28 19 19 37 -18z m-97 -21 c0 -8 9 -23 21 -35 26 -26 12 -47 -20 -30 -16 9
-21 21 -21 52 0 24 4 38 10 34 6 -3 10 -13 10 -21z m174 -21 c-9 -38 -22 -50
-30 -29 -4 10 1 24 12 36 25 25 25 25 18 -7z m3666 -38 c0 -8 -7 -15 -15 -15
-8 0 -15 7 -15 15 0 8 7 15 15 15 8 0 15 -7 15 -15z m-3800 -60 c-7 -9 -15
-13 -17 -11 -7 7 7 26 19 26 6 0 6 -6 -2 -15z m218 -48 c16 -70 15 -103 -2
-62 -17 38 -29 115 -18 115 4 0 13 -24 20 -53z m-148 36 c0 -5 -9 -19 -19 -32
-13 -17 -20 -20 -26 -12 -4 7 1 21 11 32 17 19 34 25 34 12z m-125 -45 c-10
-35 -54 -71 -70 -58 -9 8 -14 6 -20 -7 -6 -17 -7 -17 -17 0 -9 17 -5 31 10 33
26 4 71 28 76 40 9 24 28 16 21 -8z m135 -28 c0 -5 -4 -10 -10 -10 -5 0 -10 5
-10 10 0 6 5 10 10 10 6 0 10 -4 10 -10z m62 -30 c4 -43 -5 -52 -22 -21 -14
28 -12 61 4 61 9 0 15 -14 18 -40z m45 -17 c-8 -49 -27 -67 -27 -26 0 38 9 63
22 63 7 0 8 -14 5 -37z m-214 -16 c8 -18 17 -59 20 -92 l7 -60 -15 45 c-8 25
-15 57 -15 72 0 15 -7 31 -16 36 -9 5 -14 14 -10 21 11 17 14 14 29 -22z m80
-20 c9 -20 22 -37 27 -37 6 0 10 -9 10 -20 0 -11 -4 -20 -10 -20 -5 0 -10 9
-10 21 0 11 -4 17 -10 14 -15 -9 -12 -45 3 -45 10 0 13 -15 12 -56 -2 -52 -4
-57 -34 -71 -37 -18 -47 -13 -31 17 9 16 15 19 24 11 11 -9 13 0 14 44 0 30
-3 55 -8 55 -4 0 -10 15 -13 33 -3 17 -9 47 -13 66 -10 46 14 38 39 -12z
m-175 -4 c11 -16 22 -41 25 -58 3 -16 10 -48 15 -70 15 -60 24 -187 13 -181
-5 3 -7 14 -4 24 3 12 -1 19 -10 19 -9 0 -20 -25 -32 -69 -10 -38 -22 -71 -27
-74 -5 -3 -13 -17 -19 -31 -9 -23 -10 -24 -27 -7 -33 34 -17 414 18 414 9 0
14 -23 13 -57 -1 -7 4 -10 9 -7 10 7 5 73 -8 107 -10 27 13 20 34 -10z m82
-116 c12 -67 8 -95 -10 -67 -6 8 -10 29 -10 47 0 17 -4 35 -10 38 -12 7 -14
98 -2 109 7 8 10 -5 32 -127z m286 85 c4 -20 16 -54 27 -75 12 -24 16 -41 10
-45 -5 -4 -13 -14 -16 -22 -3 -8 -6 4 -6 27 -1 64 -16 59 -30 -11 -7 -34 -16
-68 -21 -76 -19 -31 -22 20 -5 92 10 40 17 93 16 116 -2 53 15 49 25 -6z
m1072 -44 c-2 -7 2 -12 8 -11 6 1 10 -15 10 -38 0 -21 -3 -39 -7 -39 -3 0 -4
-11 -1 -25 2 -14 10 -25 18 -25 7 0 18 -9 24 -20 6 -11 19 -20 30 -20 10 0 21
-4 25 -9 7 -12 66 -11 82 1 7 6 24 7 37 4 15 -4 26 -1 29 7 3 9 7 9 19 -1 13
-10 18 -9 28 3 7 8 9 15 5 15 -5 0 -6 2 -3 5 3 3 12 3 21 -1 17 -6 15 -11 -24
-52 -9 -9 -19 -30 -23 -46 -7 -27 -107 -178 -145 -217 -9 -10 -32 -36 -51 -60
-19 -23 -51 -61 -70 -84 -54 -65 -61 -74 -126 -160 -33 -44 -94 -123 -135
-175 -41 -53 -90 -123 -108 -155 -46 -82 -105 -172 -241 -365 -64 -91 -126
-182 -138 -203 -30 -53 -78 -166 -87 -208 -4 -19 -23 -52 -41 -75 -19 -22 -30
-45 -26 -49 4 -5 -1 -5 -10 -2 -10 4 -18 2 -18 -2 0 -5 -15 -9 -32 -8 -52 3
-63 47 -62 242 2 136 5 170 24 225 12 35 29 76 39 90 20 29 39 69 76 165 15
39 37 88 48 110 22 45 143 216 226 320 83 104 110 146 193 300 42 77 85 156
96 175 30 49 62 120 62 135 0 7 25 37 55 68 30 30 55 58 55 62 0 11 74 95 84
95 3 0 15 9 26 20 23 23 31 25 28 8z m-1188 -25 c-1 -11 -26 -43 -34 -43 -8 0
-8 35 1 43 9 9 33 9 33 0z m-356 -82 c8 -13 -4 -42 -15 -35 -12 7 -12 44 0 44
6 0 12 -4 15 -9z m339 -58 c-6 -50 -10 -60 -18 -51 -8 8 7 98 16 98 5 0 6 -21
2 -47z m-136 -5 c-3 -8 -6 -5 -6 6 -1 11 2 17 5 13 3 -3 4 -12 1 -19z m34 -40
c-5 -13 -9 -26 -10 -30 0 -5 -4 -8 -8 -7 -10 1 -4 30 9 47 16 18 19 15 9 -10z
m587 -62 c3 -12 -1 -17 -10 -14 -7 3 -15 13 -16 22 -3 12 1 17 10 14 7 -3 15
-13 16 -22z m-624 -36 c7 -33 6 -34 -9 -16 -8 11 -15 31 -15 45 0 34 16 15 24
-29z m233 8 c-3 -8 -6 -5 -6 6 -1 11 2 17 5 13 3 -3 4 -12 1 -19z m-5 -100
c-2 -10 -9 -15 -14 -12 -6 4 -8 -6 -4 -27 7 -32 6 -33 -9 -14 -27 35 -30 64
-6 86 11 11 22 25 22 32 1 7 4 -1 8 -18 4 -16 5 -38 3 -47z m274 25 c-10 -10
-19 5 -10 18 6 11 8 11 12 0 2 -7 1 -15 -2 -18z m-526 -6 c0 -16 -34 -50 -42
-42 -3 4 -1 17 6 30 12 26 36 34 36 12z m-180 -28 c-7 -11 -14 -18 -17 -15 -3
3 0 12 7 21 18 21 23 19 10 -6z m290 -14 c0 -14 -4 -25 -10 -25 -5 0 -10 11
-10 25 0 14 5 25 10 25 6 0 10 -11 10 -25z m60 -16 c0 -11 -4 -17 -10 -14 -5
3 -10 13 -10 21 0 8 5 14 10 14 6 0 10 -9 10 -21z m-390 -36 c0 -23 30 -27 45
-7 20 28 27 12 10 -23 -12 -24 -13 -40 -5 -79 19 -85 19 -94 5 -94 -13 0 -18
22 -27 110 -2 17 -10 26 -24 28 -16 2 -20 8 -17 22 3 10 -4 32 -16 48 -11 16
-18 32 -14 36 9 8 43 -24 43 -41z m150 28 c0 -5 -7 -14 -15 -21 -8 -7 -15 -18
-15 -26 0 -20 -20 -67 -26 -61 -5 5 20 89 32 109 7 11 24 10 24 -1z m70 -26
c0 -8 -7 -15 -15 -15 -16 0 -20 12 -8 23 11 12 23 8 23 -8z m13487 -28 c-2 -6
-26 -18 -53 -27 -27 -8 -50 -18 -52 -22 -2 -5 -11 -8 -20 -8 -13 0 -128 -50
-184 -81 -10 -5 -18 -7 -18 -4 0 9 60 65 70 65 6 0 26 11 45 25 18 14 37 25
41 24 5 -1 22 3 37 9 16 7 33 12 38 12 5 0 9 3 9 8 0 4 21 8 46 9 30 1 44 -3
41 -10z m-13487 -27 c0 -5 -4 -10 -10 -10 -5 0 -10 5 -10 10 0 6 5 10 10 10 6
0 10 -4 10 -10z m240 -5 c0 -8 -7 -15 -16 -15 -14 0 -14 3 -4 15 7 8 14 15 16
15 2 0 4 -7 4 -15z m-70 -67 c0 -5 -4 -8 -10 -8 -5 0 -10 10 -10 23 0 18 2 19
10 7 5 -8 10 -18 10 -22z m32 -55 c-11 -32 -23 -73 -27 -90 -7 -33 -25 -56
-25 -31 0 35 30 150 46 178 27 45 30 13 6 -57z m-432 62 c0 -8 -4 -15 -10 -15
-5 0 -10 7 -10 15 0 8 5 15 10 15 6 0 10 -7 10 -15z m-26 -61 c3 -9 2 -22 -2
-31 -8 -13 -11 -13 -24 1 -13 12 -17 13 -21 2 -3 -7 4 -21 15 -30 16 -14 19
-24 13 -54 -7 -40 -21 -62 -39 -62 -7 0 -12 30 -14 85 -3 79 -2 85 17 85 11 0
23 5 26 10 9 15 22 12 29 -6z m76 -51 c0 -4 -14 -8 -31 -9 -24 -1 -29 2 -23
15 3 9 9 24 11 33 5 16 8 15 24 -6 11 -13 19 -28 19 -33z m320 2 c-6 -16 -10
-38 -9 -49 1 -12 -1 -32 -5 -46 -3 -14 -7 -45 -9 -69 -1 -26 -7 -46 -15 -49
-24 -8 -3 205 23 249 14 22 26 -7 15 -36z m-124 -21 c-3 -8 -11 -12 -16 -9 -6
4 -17 1 -25 -5 -12 -10 -15 -9 -15 9 0 14 6 21 20 21 11 0 24 8 28 18 6 16 7
16 10 -1 2 -10 1 -25 -2 -33z m-176 -51 c0 -30 -2 -34 -15 -23 -8 7 -15 25
-15 41 0 21 4 27 15 23 9 -4 15 -19 15 -41z m170 -93 c-6 -101 -13 -120 -12
-33 1 24 -5 48 -12 55 -7 7 -16 26 -20 41 -5 22 -3 27 13 27 11 0 23 5 26 11
11 17 11 9 5 -101z m158 15 c-1 -29 -6 -46 -16 -50 -20 -8 -21 -6 -15 48 7 62
31 65 31 2z m-395 -71 c19 -60 33 -187 48 -454 10 -179 15 -212 35 -257 13
-28 24 -57 24 -62 0 -6 5 -11 10 -11 6 0 10 -11 10 -25 0 -14 -3 -25 -7 -25
-11 1 -63 115 -63 139 0 11 -5 23 -11 26 -6 4 -13 15 -17 26 -4 11 -12 15 -19
11 -9 -6 -5 -16 13 -35 14 -16 23 -35 20 -43 -7 -19 -26 -18 -26 3 0 9 -6 24
-13 32 -9 10 -20 85 -31 204 -10 103 -26 240 -37 305 -23 143 -25 222 -5 222
7 0 16 10 20 23 6 22 6 22 20 -4 7 -15 21 -49 29 -75z m196 4 c1 -35 4 -71 7
-80 3 -10 1 -18 -5 -18 -15 0 -21 29 -20 98 1 81 16 81 18 0z m13581 -18 c14
-4 19 -8 12 -9 -7 -1 -11 -5 -8 -10 3 -4 -23 -16 -57 -25 -122 -33 -223 -69
-297 -105 -123 -62 -231 -121 -294 -162 -32 -22 -62 -39 -67 -39 -5 0 -9 -3
-9 -8 0 -4 -21 -19 -47 -32 -27 -14 -50 -27 -53 -30 -3 -3 -14 -4 -25 -4 -11
1 -28 2 -39 3 -15 1 -16 4 -6 16 10 12 10 15 -3 15 -8 0 -20 -7 -27 -16 -12
-13 -16 -11 -33 16 -14 23 -23 28 -32 20 -9 -8 -14 -6 -18 5 -5 11 -16 13 -52
8 -29 -4 -45 -2 -45 5 0 8 352 194 363 191 1 0 15 4 30 10 16 6 34 11 40 11 7
0 23 6 37 13 14 7 54 19 90 27 36 7 67 16 70 20 6 8 187 56 241 64 19 3 46 10
60 15 29 12 134 12 169 1z m-13638 -75 c2 -19 2 -32 -1 -30 -2 3 -10 0 -18 -7
-21 -17 -25 -4 -13 41 13 48 26 46 32 -4z m245 -37 c-3 -7 -5 -2 -5 12 0 14 2
19 5 13 2 -7 2 -19 0 -25z m-147 -18 c0 -5 -5 -10 -11 -10 -5 0 -7 5 -4 10 3
6 8 10 11 10 2 0 4 -4 4 -10z m91 -47 c-12 -20 -14 -14 -5 12 4 9 9 14 11 11
3 -2 0 -13 -6 -23z m-151 7 c0 -5 -2 -10 -4 -10 -3 0 -8 5 -11 10 -3 6 -1 10
4 10 6 0 11 -4 11 -10z m191 -33 c-13 -13 -15 1 -4 30 7 17 8 17 11 -1 2 -10
-1 -23 -7 -29z m-231 -18 c0 -31 -4 -48 -10 -44 -5 3 -10 26 -10 51 0 24 5 44
10 44 6 0 10 -23 10 -51z m187 -31 c-3 -7 -5 -2 -5 12 0 14 2 19 5 13 2 -7 2
-19 0 -25z m6 -32 c12 -9 14 -16 8 -21 -6 -3 -11 0 -11 7 0 7 -9 2 -20 -12
-23 -30 -38 -20 -22 15 13 28 20 30 45 11z m-192 -134 c-8 -13 -10 -5 -10 33
1 48 1 49 10 17 6 -21 6 -39 0 -50z m184 49 c-3 -12 -11 -21 -16 -21 -14 0
-11 38 4 43 17 6 20 2 12 -22z m-75 -17 c0 -8 -6 -14 -14 -14 -7 0 -19 -7 -26
-15 -7 -8 -16 -12 -21 -9 -16 10 -9 24 16 34 14 5 25 14 25 20 0 6 5 8 10 5 6
-3 10 -13 10 -21z m216 -131 c-9 -43 -24 -117 -34 -166 -24 -116 -27 -239 -8
-366 9 -58 16 -124 16 -147 0 -55 18 -140 38 -179 14 -29 14 -29 -3 -15 -57
47 -113 248 -135 480 -14 156 -17 170 -35 170 -27 0 -28 22 -2 44 18 14 42 62
77 155 47 127 62 156 85 173 17 12 17 -65 1 -149z m-224 -35 c1 -62 2 -124 3
-138 1 -14 -6 -34 -16 -45 -10 -11 -22 -32 -28 -47 -14 -38 -31 -35 -26 5 2
17 7 63 9 102 7 85 37 235 48 235 4 0 9 -51 10 -112z m9768 72 c0 -12 -28 -25
-36 -17 -9 9 6 27 22 27 8 0 14 -5 14 -10z m-9944 -264 c1 0 4 -18 7 -38 6
-40 -11 -54 -20 -18 -3 11 -10 20 -16 20 -12 0 -4 -279 14 -423 11 -97 6 -173
-11 -162 -6 3 -19 36 -30 73 -21 74 -41 363 -33 488 l5 72 42 -5 c22 -3 41 -6
42 -7z m1049 -16 c3 -6 0 -13 -8 -16 -9 -3 -13 -13 -10 -25 3 -10 1 -19 -4
-19 -6 0 -8 -10 -6 -22 3 -15 -3 -27 -15 -35 -24 -15 -62 -6 -62 14 0 22 38
80 63 98 25 18 34 19 42 5z m-865 -144 c-8 -26 -9 -45 -1 -68 6 -18 15 -62 20
-98 6 -36 16 -96 24 -135 8 -38 18 -86 21 -105 5 -33 5 -34 -10 -15 -8 11 -20
19 -25 17 -6 -1 -8 2 -5 7 4 5 2 12 -4 16 -5 3 -10 26 -10 49 0 24 -5 68 -10
97 -24 122 -28 219 -13 250 20 40 28 30 13 -15z m-131 -178 c-2 -123 6 -209
27 -293 4 -16 3 -17 -5 -5 -33 53 -63 440 -34 440 10 0 13 -31 12 -142z m2979
56 c13 -9 30 -31 38 -49 12 -29 12 -37 -1 -61 -24 -46 -116 -144 -136 -144
-32 0 -52 46 -57 130 -4 70 -2 82 18 107 35 45 85 51 138 17z m279 -239 c16
-26 18 -35 8 -39 -15 -5 -45 34 -45 59 0 24 13 17 37 -20z m-115 -7 c7 -13 11
-28 10 -34 -1 -6 5 -17 13 -24 8 -7 15 -17 15 -23 0 -16 -25 12 -49 56 -24 43
-25 47 -11 47 5 0 15 -10 22 -22z m43 -21 c17 -42 7 -51 -12 -10 -13 26 -18
61 -8 52 2 -3 11 -22 20 -42z m-80 -27 c33 -65 33 -91 0 -52 -14 17 -25 37
-25 45 0 9 -4 19 -10 22 -5 3 -10 13 -10 21 0 29 20 13 45 -36z m-40 -33 c10
-26 16 -50 13 -53 -7 -7 -48 81 -48 103 0 26 15 5 35 -50z m-48 -19 c37 -70
36 -68 24 -68 -13 0 -72 101 -65 112 9 14 13 9 41 -44z m-65 0 c-7 -7 -12 -8
-12 -2 0 14 12 26 19 19 2 -3 -1 -11 -7 -17z m38 -100 c-1 -23 -1 -23 -16 -3
-8 11 -26 32 -40 47 -14 15 -23 32 -19 38 9 15 75 -56 75 -82z m763 -20 c15
-11 37 -38 49 -61 19 -39 20 -46 8 -107 -21 -107 -42 -131 -163 -179 -37 -15
-75 -4 -109 31 -33 34 -34 39 -7 64 17 16 22 16 29 4 6 -8 10 -29 10 -47 0
-41 10 -46 51 -29 66 28 139 131 139 196 0 45 -24 84 -66 109 -34 21 -38 21
-55 5 -19 -17 -26 -9 -11 12 24 36 74 37 125 2z m-843 -9 c0 -6 -4 -7 -10 -4
-5 3 -10 11 -10 16 0 6 5 7 10 4 6 -3 10 -11 10 -16z m501 -50 c-12 -12 -25
-18 -28 -15 -9 9 18 36 35 36 12 0 11 -5 -7 -21z m80 -5 c14 -38 6 -39 -20 -4
-17 24 -19 30 -6 30 8 0 20 -12 26 -26z m-4374 -4 c15 -6 77 -43 136 -83 130
-87 137 -101 112 -217 -8 -41 -23 -115 -31 -165 -9 -49 -17 -91 -18 -92 -7 -8
-83 68 -125 126 -57 79 -90 141 -119 226 -61 183 -49 239 45 205z m4301 -119
c-40 -49 -52 -28 -14 22 14 19 23 37 20 40 -4 4 -1 14 7 23 13 16 14 14 17
-14 2 -24 -5 -41 -30 -71z m4482 68 c0 -22 -25 -26 -33 -5 -6 16 12 38 25 30
4 -3 8 -14 8 -25z m-4513 -21 c-3 -7 -5 -2 -5 12 0 14 2 19 5 13 2 -7 2 -19 0
-25z m133 -28 c0 -16 -10 -55 -21 -86 -25 -67 -18 -93 34 -117 40 -19 68 -21
115 -8 17 5 32 6 32 1 0 -14 -77 -70 -96 -70 -32 0 -102 41 -138 81 -50 54
-48 84 9 150 25 29 45 59 45 66 0 7 5 13 10 13 6 0 10 -13 10 -30z m47 -32
c-3 -7 -5 -2 -5 12 0 14 2 19 5 13 2 -7 2 -19 0 -25z m2698 -107 c-14 -29 -35
-49 -35 -36 0 9 40 65 46 65 2 0 -2 -13 -11 -29z m1201 -20 c-19 -21 -56 -34
-56 -20 0 11 62 50 69 44 2 -3 -4 -13 -13 -24z m-7089 -53 c79 -44 178 -163
227 -270 14 -32 29 -58 32 -58 12 0 -5 143 -22 195 -10 28 -30 71 -45 97 -26
44 -27 47 -7 45 30 -2 111 -89 143 -154 58 -113 44 -214 -53 -387 -30 -56 -86
-161 -124 -235 -37 -74 -71 -137 -76 -140 -4 -3 -14 -22 -22 -41 -8 -19 -20
-39 -27 -43 -7 -5 -11 -12 -8 -17 3 -5 1 -11 -4 -15 -6 -3 -8 -12 -5 -19 3 -7
-2 -16 -10 -19 -8 -3 -37 -52 -64 -109 -73 -153 -82 -174 -82 -196 0 -11 -3
-22 -7 -24 -24 -10 -102 -210 -157 -402 -50 -172 -239 -675 -302 -802 -35 -72
-64 -134 -64 -138 0 -4 -38 -89 -84 -189 -46 -100 -110 -238 -141 -307 -32
-69 -92 -192 -133 -275 -51 -102 -76 -161 -76 -185 0 -19 3 -139 6 -267 l6
-231 32 -47 c18 -26 46 -63 63 -83 27 -32 24 -31 -17 8 -60 56 -129 160 -163
242 -22 55 -25 74 -21 148 6 106 28 171 128 370 93 187 349 750 397 874 38 99
38 89 -2 271 -37 172 -38 332 -2 470 108 413 105 397 89 452 -35 122 -28 176
25 201 l35 17 -6 65 c-8 94 -15 128 -38 190 -42 117 -57 181 -49 203 5 12 27
37 50 55 39 31 42 32 65 17 19 -12 25 -28 30 -75 9 -78 22 -84 25 -12 3 98 23
132 76 132 34 0 85 -33 85 -55 0 -7 6 -18 14 -25 22 -18 8 -43 -20 -36 -21 6
-24 3 -24 -22 0 -35 36 -138 47 -134 4 1 13 21 19 45 15 58 75 157 94 157 31
0 36 -17 27 -102 -13 -125 -23 -152 -84 -209 -50 -47 -57 -51 -91 -46 -24 4
-45 18 -64 39 l-28 33 14 -43 c9 -23 27 -57 41 -76 31 -41 31 -47 -1 -79 -22
-22 -25 -32 -20 -64 6 -34 2 -43 -34 -87 -22 -26 -40 -54 -40 -62 0 -14 69
-86 106 -111 32 -20 48 -8 74 55 42 105 133 295 213 447 44 82 88 174 98 204
10 29 34 77 53 105 69 106 78 138 52 199 -21 51 -177 226 -261 293 -40 32 -43
44 -14 51 17 5 20 11 15 35 -3 16 -15 42 -25 57 -11 15 -23 40 -27 55 -6 27
-6 28 17 15 13 -7 27 -12 32 -11 4 1 7 -2 7 -7 0 -5 13 -14 29 -20 15 -7 48
-30 72 -51 76 -68 78 -54 9 63 -64 110 -64 110 -3 75z m7386 -110 c4 -12 4
-24 2 -27 -3 -2 -5 1 -5 7 0 7 -7 12 -15 12 -9 0 -12 6 -9 15 9 22 21 18 27
-7z m-373 -3 c-7 -9 -15 -13 -17 -11 -7 7 7 26 19 26 6 0 6 -6 -2 -15z m-52
-50 c-12 -14 -26 -25 -31 -25 -11 0 34 50 45 50 5 0 -2 -11 -14 -25z m-7617
-175 c37 -20 23 -55 -48 -119 -91 -82 -122 -82 -104 0 12 54 38 89 82 111 40
21 44 21 70 8z m3505 -10 c8 0 14 -7 14 -15 0 -8 5 -15 10 -15 6 0 10 -13 10
-30 0 -16 7 -33 15 -37 15 -9 10 -53 -7 -53 -18 0 -49 21 -43 30 3 4 -4 6 -15
3 -11 -3 -23 -9 -26 -14 -6 -10 44 -32 56 -24 5 3 10 0 12 -7 2 -6 18 -11 36
-11 l32 0 0 -57 c0 -31 -5 -61 -11 -67 -8 -8 -7 -20 5 -44 9 -18 16 -44 16
-59 0 -32 19 -92 33 -101 6 -4 6 -17 0 -35 -6 -17 -6 -47 -1 -74 5 -25 9 -58
9 -75 0 -16 7 -54 17 -83 14 -46 15 -54 2 -62 -10 -7 -11 -10 -2 -10 6 0 12
-9 12 -20 0 -12 -7 -20 -16 -20 -12 0 -14 -7 -9 -29 3 -16 2 -38 -4 -48 -5
-10 -19 -38 -30 -63 -12 -25 -30 -60 -41 -78 -11 -18 -30 -70 -41 -115 -12
-45 -25 -86 -30 -92 -16 -17 -10 -75 9 -82 9 -3 25 -13 34 -20 15 -13 16 -13
11 6 -7 27 12 27 31 -1 17 -24 4 -53 -21 -44 -8 3 -13 -2 -13 -13 0 -15 5 -18
23 -13 12 3 25 10 30 16 5 8 10 6 17 -4 14 -22 12 -40 -5 -40 -19 0 -19 -11 2
-55 9 -19 13 -38 9 -42 -10 -11 -45 36 -53 70 -3 15 -10 30 -14 33 -12 7 -12
-29 0 -41 14 -15 51 -84 51 -96 0 -6 -7 -9 -15 -5 -20 7 -19 -3 1 -25 9 -10
14 -26 10 -35 -9 -24 -36 1 -36 35 -1 22 -2 24 -11 9 -24 -43 33 -80 92 -59
45 16 46 15 54 -26 3 -20 17 -57 30 -82 14 -25 29 -70 35 -98 7 -29 16 -53 21
-53 6 0 7 5 3 12 -4 7 -3 8 4 4 7 -4 12 -18 12 -32 0 -13 4 -24 9 -24 11 0 22
-53 22 -98 -1 -18 -9 -45 -19 -60 -55 -80 -71 -111 -77 -148 -5 -34 -3 -43 12
-49 16 -6 15 -8 -7 -17 l-25 -9 25 -21 c22 -18 23 -21 7 -29 -9 -6 -17 -17
-17 -26 0 -11 7 -14 28 -9 26 6 26 6 7 -9 -11 -9 -32 -15 -47 -12 -22 3 -28
-1 -28 -14 0 -10 6 -24 14 -31 10 -9 11 -20 4 -38 -5 -13 -10 -51 -10 -83 0
-31 -5 -60 -10 -63 -6 -4 -8 27 -7 75 2 44 0 83 -4 87 -7 7 -37 -55 -37 -76 0
-5 -6 -11 -12 -11 -7 -1 -20 -2 -28 -3 -8 -1 -21 3 -27 8 -8 5 -13 4 -13 -2 0
-12 -61 -72 -73 -72 -13 0 -96 -93 -97 -107 0 -7 -9 -13 -21 -13 -11 0 -34
-13 -51 -29 -27 -25 -39 -29 -85 -28 -29 1 -53 4 -53 8 0 4 -11 10 -25 13 -14
4 -25 13 -25 21 0 8 -4 15 -9 15 -5 0 -12 15 -15 33 -4 19 -15 52 -26 75 -11
23 -20 47 -20 55 0 7 -4 17 -8 23 -5 5 -14 35 -21 67 -7 31 -17 57 -22 57 -6
0 -7 5 -3 11 3 6 2 14 -4 18 -7 4 -22 65 -34 135 -18 102 -26 130 -40 133 -19
6 -33 53 -23 83 3 11 2 20 -3 20 -9 0 -23 44 -27 85 -1 11 -5 45 -10 75 -16
111 -20 412 -6 458 5 17 7 32 4 32 -3 0 2 11 11 25 9 13 16 29 16 35 0 6 15
25 33 44 36 37 64 106 111 281 18 67 42 139 54 160 11 22 30 83 42 135 12 52
28 111 35 130 8 19 17 63 20 97 12 119 43 193 95 220 32 17 35 23 36 63 0 25
6 58 12 74 7 15 12 33 11 40 -5 39 2 56 23 56 21 0 21 0 -4 28 -37 38 -24 66
39 85 26 8 54 13 61 11 8 -2 20 -4 28 -4z m31 -12 c-3 -8 -6 -5 -6 6 -1 11 2
17 5 13 3 -3 4 -12 1 -19z m83 -58 c0 -5 -2 -10 -4 -10 -3 0 -8 5 -11 10 -3 6
-1 10 4 10 6 0 11 -4 11 -10z m1983 -11 c3 -11 3 -28 0 -36 -5 -14 -8 -13 -20
3 -7 10 -13 26 -13 36 0 25 26 23 33 -3z m2279 -81 c-7 -7 -12 -8 -12 -2 0 14
12 26 19 19 2 -3 -1 -11 -7 -17z m-7809 6 c3 -4 2 -15 -3 -25 -12 -21 6 -37
23 -20 23 23 40 13 33 -21 -12 -60 -57 -66 -74 -10 -15 51 -2 99 21 76z m-50
-59 c-1 -28 -2 -53 -2 -57 -1 -5 -11 -8 -23 -8 -12 0 -29 -7 -39 -16 -20 -18
-52 -7 -81 30 -37 45 -10 79 73 95 71 14 74 12 72 -44z m5317 -95 c0 -5 -7
-10 -15 -10 -8 0 -15 5 -15 10 0 6 7 10 15 10 8 0 15 -4 15 -10z m310 -10 c0
-5 -7 -10 -16 -10 -8 0 -12 5 -9 10 3 6 10 10 16 10 5 0 9 -4 9 -10z m-5070
-164 c31 -47 38 -70 18 -64 -11 4 -57 84 -58 101 0 15 10 6 40 -37z m4890 -36
c0 -5 -7 -10 -15 -10 -8 0 -15 5 -15 10 0 6 7 10 15 10 8 0 15 -4 15 -10z
m-1520 -40 c0 -5 -5 -10 -11 -10 -5 0 -7 5 -4 10 3 6 8 10 11 10 2 0 4 -4 4
-10z m-210 -281 c-7 -11 -14 -18 -17 -15 -8 8 5 36 17 36 7 0 7 -6 0 -21z m34
-75 c-5 -27 -4 -35 5 -30 6 4 11 1 11 -9 0 -19 20 -56 39 -71 9 -7 11 -13 3
-18 -14 -8 12 -62 34 -70 10 -4 14 -14 11 -25 -3 -12 4 -28 19 -42 26 -24 34
-49 9 -29 -12 10 -15 10 -15 -4 0 -9 4 -16 9 -16 5 0 7 -9 4 -19 -6 -23 35
-41 47 -20 5 7 7 -3 5 -24 -5 -56 -15 -79 -31 -73 -8 3 -14 -1 -14 -9 0 -8 5
-15 11 -15 6 0 9 -10 7 -22 -2 -13 -8 -22 -14 -21 -6 1 -9 -10 -6 -26 2 -16
-1 -32 -7 -35 -6 -4 -11 -23 -11 -42 0 -19 -5 -34 -11 -34 -6 0 -9 -9 -6 -20
3 -11 0 -20 -5 -20 -7 0 -7 -4 0 -13 7 -8 7 -18 2 -27 -8 -12 -10 -11 -10 6 0
12 -7 27 -15 34 -8 7 -13 16 -10 20 3 4 -2 14 -11 21 -13 11 -17 10 -25 -4 -6
-9 -15 -17 -21 -17 -6 0 -4 8 5 18 32 35 11 72 -21 40 -9 -9 -12 -8 -12 8 0
11 -7 29 -15 41 -9 13 -17 50 -19 88 -2 36 -7 70 -13 76 -5 5 -37 11 -71 12
-51 2 -62 5 -62 19 0 57 177 408 206 408 3 0 2 -16 -2 -36z m261 -277 c0 -26
-20 -25 -23 2 -3 16 1 22 10 19 7 -3 13 -12 13 -21z m65 -23 c0 -8 -4 -12 -10
-9 -5 3 -10 10 -10 16 0 5 5 9 10 9 6 0 10 -7 10 -16z m70 -80 c0 -14 -4 -23
-10 -19 -5 3 -10 15 -10 26 0 10 5 19 10 19 6 0 10 -12 10 -26z m135 -4 c-3
-5 -11 -10 -16 -10 -6 0 -7 5 -4 10 3 6 11 10 16 10 6 0 7 -4 4 -10z m-45 -72
c0 -14 -30 -48 -42 -48 -13 0 -9 22 9 42 18 21 33 23 33 6z m160 -68 c0 -5 -2
-10 -4 -10 -3 0 -8 5 -11 10 -3 6 -1 10 4 10 6 0 11 -4 11 -10z m484 -5 c-4
-8 -10 -15 -15 -15 -5 0 -9 7 -9 15 0 8 7 15 15 15 9 0 12 -6 9 -15z m-1239
-115 c-3 -5 -10 -10 -16 -10 -5 0 -9 5 -9 10 0 6 7 10 16 10 8 0 12 -4 9 -10z
m7175 -4 c0 -3 -4 -8 -10 -11 -5 -3 -10 -1 -10 4 0 6 5 11 10 11 6 0 10 -2 10
-4z m-6520 -36 c0 -5 -7 -10 -15 -10 -8 0 -15 5 -15 10 0 6 7 10 15 10 8 0 15
-4 15 -10z m343 -54 c-10 -13 -19 -23 -21 -21 -7 6 19 45 29 45 5 0 2 -11 -8
-24z m-263 -120 c0 -3 -4 -8 -10 -11 -5 -3 -10 -1 -10 4 0 6 5 11 10 11 6 0
10 -2 10 -4z m-567 -118 c6 -22 5 -22 -8 -4 -17 22 -20 40 -6 32 5 -3 11 -16
14 -28z m227 -124 c0 -8 -4 -14 -10 -14 -5 0 -10 9 -10 21 0 11 5 17 10 14 6
-3 10 -13 10 -21z m-140 -90 c0 -8 -4 -12 -10 -9 -5 3 -10 13 -10 21 0 8 5 12
10 9 6 -3 10 -13 10 -21z m60 17 c0 -6 -4 -13 -10 -16 -5 -3 -10 1 -10 9 0 9
5 16 10 16 6 0 10 -4 10 -9z m-110 -107 c0 -23 -20 -55 -31 -49 -10 7 -12 48
-2 58 12 13 33 7 33 -9z m132 -94 c-2 -22 -9 -38 -16 -37 -6 1 -11 -9 -12 -23
0 -14 -6 -40 -13 -59 -11 -26 -16 -30 -22 -18 -12 21 44 177 64 177 1 0 1 -18
-1 -40z m105 -182 c-3 -8 -6 -5 -6 6 -1 11 2 17 5 13 3 -3 4 -12 1 -19z m-27
-26 c0 -13 -12 -22 -22 -16 -10 6 -1 24 13 24 5 0 9 -4 9 -8z m-192 -42 c-7
-10 -14 -17 -17 -15 -4 4 18 35 25 35 2 0 -1 -9 -8 -20z m-33 -70 c8 -13 -5
-13 -25 0 -13 8 -13 10 2 10 9 0 20 -4 23 -10z m295 -55 c0 -16 -27 -32 -37
-21 -7 7 16 36 28 36 5 0 9 -7 9 -15z m-230 -75 c0 -5 -7 -10 -15 -10 -8 0
-15 5 -15 10 0 6 7 10 15 10 8 0 15 -4 15 -10z m-126 -25 c-6 -16 -24 -21 -24
-7 0 11 11 22 21 22 5 0 6 -7 3 -15z m-47 -127 c-2 -13 -4 -5 -4 17 -1 22 1
32 4 23 2 -10 2 -28 0 -40z m98 -314 c-26 -92 -50 -197 -54 -233 l-7 -66 -8
48 c-12 70 -2 133 43 270 22 67 46 142 53 167 12 44 12 44 16 13 2 -17 -18
-107 -43 -199z m433 -173 c-53 -50 -83 -89 -108 -140 -39 -78 -57 -94 -35 -30
30 83 70 138 148 200 77 61 74 45 -5 -30z m-3855 -1016 c104 -39 180 -85 224
-134 l22 -25 12 26 c7 17 17 24 26 21 20 -8 60 -98 68 -154 12 -84 -46 -543
-84 -659 -12 -35 -21 -68 -21 -74 -1 -19 -61 -78 -74 -73 -15 6 -24 41 -35
147 -8 73 -8 77 26 142 34 65 34 69 28 150 -8 97 -8 99 -34 203 -12 44 -26
103 -32 130 -28 120 -107 240 -197 299 -37 24 -76 54 -87 67 -18 20 -13 19 36
-9 31 -18 86 -43 122 -57z m257 -37 c0 -13 -23 -5 -28 10 -2 7 2 10 12 6 9 -3
16 -11 16 -16z m309 -370 c70 -136 112 -464 76 -598 -9 -35 -23 -77 -31 -92
-8 -16 -80 -95 -159 -175 -127 -130 -144 -150 -138 -173 14 -58 87 -240 120
-300 20 -36 29 -58 20 -50 -26 25 -93 158 -138 275 -23 61 -50 121 -59 135
-10 14 -28 45 -40 70 -21 42 -70 109 -70 96 0 -12 49 -134 70 -175 12 -24 24
-62 26 -84 3 -23 12 -64 20 -91 21 -75 17 -84 -17 -38 -47 64 -61 55 -34 -23
l14 -40 -24 27 c-13 16 -28 36 -34 45 -5 10 -12 15 -15 12 -9 -9 20 -85 59
-156 21 -38 29 -60 20 -56 -8 3 -15 9 -15 15 0 5 -4 7 -9 4 -4 -3 -6 -17 -3
-32 4 -24 3 -25 -17 -15 -25 14 -41 7 -41 -19 0 -10 -7 -20 -15 -24 -8 -3 -15
-2 -15 2 0 4 -13 22 -30 40 -16 18 -30 36 -30 40 0 4 -3 15 -6 26 -5 15 -8 16
-15 5 -7 -11 -9 -9 -9 7 0 12 -6 27 -14 33 -7 6 -21 49 -31 96 -24 115 -17
181 30 274 20 41 50 125 66 188 16 63 35 125 41 137 11 19 13 17 19 -24 10
-66 35 -133 86 -235 52 -103 52 -103 61 -89 4 5 30 26 58 47 82 59 171 160
185 209 11 41 9 123 -18 692 -5 107 6 110 56 14z m4851 -830 c0 -6 -7 -5 -15
2 -8 7 -15 17 -15 22 0 6 7 5 15 -2 8 -7 15 -17 15 -22z m-935 -178 c12 -19
-23 -39 -95 -56 -79 -18 -98 -13 -60 16 49 38 142 61 155 40z m164 -176 c28
-15 51 -31 51 -36 0 -11 -1 -11 -61 17 -72 33 -182 49 -240 36 -59 -14 -80
-14 -56 0 26 15 143 25 204 18 28 -4 75 -20 102 -35z m-4307 -697 c0 -45 7
-102 15 -126 15 -48 20 -195 9 -249 -6 -24 -19 -39 -50 -57 -24 -14 -50 -25
-59 -25 -9 0 -20 -8 -26 -17 -7 -14 -11 -9 -21 27 -10 34 -10 78 -2 185 9 120
15 154 45 236 60 166 88 174 89 26z m679 -49 c-9 -31 -9 -30 -10 24 -1 31 2
65 7 75 11 29 15 -59 3 -99z m-54 85 c-15 -29 -20 -56 -18 -108 2 -62 -15
-105 -37 -91 -25 15 -7 156 20 156 5 0 13 11 18 25 5 14 12 25 15 25 4 0 4 -3
2 -7z m113 -23 c0 -11 -4 -20 -9 -20 -5 0 -7 9 -4 20 3 11 7 20 9 20 2 0 4 -9
4 -20z m-239 -173 c-15 -15 -34 41 -28 85 3 20 11 43 18 51 12 13 14 4 17 -56
2 -38 -2 -75 -7 -80z m-177 117 c10 -25 7 -64 -8 -123 -8 -31 -17 -67 -20 -81
-3 -14 -12 -34 -20 -45 -24 -31 -36 -3 -36 87 0 79 18 139 50 165 20 17 27 16
34 -3z m131 -51 c17 -70 20 -177 4 -168 -5 4 -15 19 -21 33 l-10 27 -10 -28
c-16 -44 -28 -21 -28 52 0 48 6 80 21 110 11 24 23 41 25 38 3 -3 12 -31 19
-64z m-275 -53 c15 0 23 -108 10 -139 -12 -29 -75 -69 -88 -56 -4 4 -7 46 -7
93 0 76 3 91 24 121 l24 33 14 -26 c7 -14 18 -26 23 -26z m310 -418 c0 -5 -7
-17 -15 -28 -14 -19 -14 -19 -15 2 0 11 3 24 7 27 9 10 23 9 23 -1z m-317 -39
c-11 -28 -15 -68 -14 -153 l2 -114 -24 22 c-13 12 -28 22 -34 22 -11 0 -77
137 -87 181 -4 13 -3 29 2 36 15 24 68 43 119 43 l52 0 -16 -37z m463 -449
c37 -78 46 -183 48 -534 1 -292 -1 -339 -21 -458 -12 -73 -29 -142 -38 -154
-24 -35 -20 -86 9 -99 19 -9 25 -21 31 -66 8 -62 1 -110 -26 -203 -10 -36 -21
-92 -24 -125 -3 -33 -8 -76 -10 -95 -2 -19 0 -50 5 -68 5 -18 5 -30 0 -27 -15
9 -6 -38 14 -75 16 -30 17 -33 2 -21 -26 21 -152 286 -181 381 -56 180 -63
326 -39 858 10 210 -21 362 -106 533 -27 52 -36 80 -29 90 5 8 9 25 9 39 0 23
4 25 35 24 35 -2 105 -45 105 -65 0 -5 6 -9 13 -9 8 0 24 -12 38 -26 22 -24
56 -43 87 -50 7 -1 23 12 37 30 31 41 32 86 5 158 -16 42 -17 49 -4 33 9 -11
27 -43 40 -71z m326 -95 c32 -15 74 -72 94 -128 9 -25 20 -55 24 -66 14 -33
21 -93 28 -232 4 -72 10 -135 14 -138 9 -9 57 27 58 42 0 6 8 14 18 17 10 3
33 36 52 74 30 59 88 127 156 185 21 18 22 18 26 -17 2 -20 0 -34 -7 -33 -5 1
-10 -14 -11 -33 0 -19 -2 -39 -3 -45 -2 -5 -3 -13 -2 -17 0 -4 -9 -31 -20 -60
-22 -54 -34 -98 -48 -178 -10 -52 -88 -317 -101 -341 -4 -9 -22 -67 -40 -130
-52 -191 -66 -233 -77 -236 -12 -4 -39 80 -48 149 -6 49 5 154 32 293 24 126
5 305 -33 305 -8 0 -33 -10 -54 -22 l-39 -23 -31 24 c-40 29 -62 15 -36 -23 9
-14 16 -28 16 -31 0 -8 -43 16 -51 28 -4 5 -12 6 -19 2 -8 -5 -5 -11 9 -22 25
-17 27 -46 4 -64 -9 -8 -31 -47 -50 -88 -41 -89 -55 -89 -18 0 25 59 27 76 29
229 3 215 15 407 28 445 24 71 62 145 74 145 2 0 13 -5 26 -11z m-176 -495
c-7 -85 -11 -101 -44 -159 -13 -24 -17 -27 -20 -12 -2 10 2 24 8 32 9 11 39
170 40 213 0 6 5 12 11 12 9 0 10 -24 5 -86z m170 -241 c-7 -16 -9 -16 -21 7
-16 30 -8 48 13 27 9 -10 12 -23 8 -34z m-36 -89 c0 -16 -2 -16 -24 -8 -22 8
-20 19 4 21 11 1 20 -4 20 -13z m-172 -35 l20 -40 -24 -80 c-14 -44 -22 -85
-18 -91 5 -8 0 -9 -17 -3 -13 4 -34 7 -46 7 -13 0 -20 4 -17 9 3 5 15 9 27 9
18 0 24 9 34 50 7 28 19 58 28 66 19 19 12 32 -9 15 -11 -9 -15 -8 -20 5 -13
33 -4 94 14 94 4 0 17 -18 28 -41z m122 -63 c0 -14 -21 -58 -26 -54 -8 8 7 58
17 58 5 0 9 -2 9 -4z m-50 -166 c0 -21 -15 -27 -25 -10 -7 12 2 30 16 30 5 0
9 -9 9 -20z m87 -12 c-3 -8 -6 -5 -6 6 -1 11 2 17 5 13 3 -3 4 -12 1 -19z
m-123 -101 c-6 -43 -24 -57 -24 -18 0 17 22 72 27 67 2 -2 0 -24 -3 -49z
m3326 -117 c27 -15 47 -84 30 -105 -19 -22 -38 -18 -71 14 -33 33 -36 56 -12
83 19 21 27 22 53 8z m260 -136 c0 -8 -4 -12 -10 -9 -5 3 -10 10 -10 16 0 5 5
9 10 9 6 0 10 -7 10 -16z m-320 -217 c0 -7 9 -20 20 -30 17 -15 18 -20 8 -39
-7 -13 -16 -26 -21 -29 -4 -3 -10 -34 -13 -69 -3 -35 -10 -72 -15 -82 -10 -19
-29 -24 -29 -8 0 6 -9 10 -20 10 -22 0 -24 12 -21 104 2 89 23 151 46 142 8
-3 17 -1 20 4 9 14 25 12 25 -3z m-246 -44 c-2 -43 -5 -50 -13 -28 -5 11 -4
28 1 38 12 23 14 22 12 -10z m394 -58 c6 -14 15 -25 19 -24 42 7 80 -49 69
-102 -3 -16 3 -42 14 -65 26 -50 26 -74 0 -74 -11 0 -20 5 -20 10 0 6 -6 10
-13 10 -17 0 -69 104 -61 123 3 9 -3 28 -14 42 -12 15 -20 41 -20 65 -1 46 10
52 26 15z m239 3 c-3 -8 -6 -5 -6 6 -1 11 2 17 5 13 3 -3 4 -12 1 -19z m-287
-44 c0 -19 -16 -18 -24 2 -11 27 -7 37 9 24 8 -7 15 -19 15 -26z m236 4 c-3
-13 -6 -34 -6 -48 -1 -19 -3 -21 -9 -10 -11 19 -2 80 11 80 6 0 8 -10 4 -22z
m47 -21 c3 -8 1 -20 -4 -28 -6 -10 -9 -7 -9 14 0 29 5 35 13 14z m-244 -60
c-8 -7 -11 -8 -7 -3 4 4 1 15 -7 23 -8 8 -15 19 -15 24 0 5 9 0 21 -12 17 -17
19 -23 8 -32z m-264 -17 c3 -5 1 -10 -4 -10 -6 0 -11 5 -11 10 0 6 2 10 4 10
3 0 8 -4 11 -10z m-25 -34 c0 -13 -6 -26 -13 -29 -10 -4 -12 3 -9 24 5 35 22
39 22 5z m497 -18 c25 -18 33 -30 33 -53 0 -36 -19 -158 -26 -164 -2 -3 -13 4
-24 15 -16 15 -21 39 -26 122 -4 56 -3 102 1 102 5 0 24 -10 42 -22z m-131
-138 c3 -21 -1 -30 -11 -30 -15 0 -22 50 -8 63 10 10 15 1 19 -33z m-181 -241
c4 -11 17 -24 29 -29 12 -4 30 -24 41 -43 15 -29 17 -40 7 -59 -11 -21 -12
-21 -7 -2 4 17 1 22 -12 20 -24 -2 -36 -22 -25 -43 5 -10 12 -38 16 -63 5 -33
14 -51 36 -69 l30 -23 0 -114 c0 -64 -4 -115 -10 -119 -7 -4 -7 -12 0 -25 14
-27 24 -125 14 -143 -7 -12 -14 1 -27 51 -10 37 -27 94 -38 127 -11 33 -29 92
-40 130 -10 39 -26 75 -34 81 -26 20 -39 68 -41 159 -1 50 -5 104 -9 121 -5
22 -2 35 10 47 23 23 52 21 60 -4z m400 -218 c14 -56 25 -115 25 -130 0 -30
-24 -70 -35 -59 -4 4 -16 3 -25 -2 -25 -14 -32 7 -37 125 -5 93 -4 101 16 119
11 11 21 28 21 39 0 38 11 10 35 -92z m-409 -188 c3 -10 11 -28 17 -41 6 -12
11 -50 11 -82 1 -33 4 -60 8 -60 19 0 53 -172 39 -198 -7 -13 -7 -22 1 -30 8
-8 8 -19 -1 -41 -13 -29 -8 -64 12 -89 6 -7 10 -50 10 -94 0 -79 -2 -83 -32
-110 -39 -34 -56 -35 -77 -3 -13 19 -15 37 -9 86 4 34 11 76 16 93 6 20 5 32
-2 37 -6 3 -9 26 -8 50 2 27 -1 43 -8 42 -15 -3 -24 79 -10 95 6 8 11 56 11
120 -1 59 1 101 4 94 2 -6 8 -10 12 -7 5 3 5 17 0 31 -5 13 -9 28 -9 32 3 19
-2 23 -16 12 -26 -22 -46 7 -26 39 8 12 12 12 25 2 13 -11 16 -11 16 3 0 9 -5
16 -11 16 -5 0 -7 5 -4 10 10 16 25 12 31 -7z m434 -470 c0 -13 -9 -32 -20
-43 l-20 -20 0 30 c0 40 21 85 32 68 4 -7 8 -23 8 -35z m160 -14 c0 -11 -4
-17 -10 -14 -5 3 -10 13 -10 21 0 8 5 14 10 14 6 0 10 -9 10 -21z m60 -64 c0
-8 -4 -15 -10 -15 -5 0 -7 7 -4 15 4 8 8 15 10 15 2 0 4 -7 4 -15z m-41 -44
c2 -26 -13 -1 -16 27 -2 23 -1 24 7 7 5 -11 9 -26 9 -34z m61 -215 c0 -8 -4
-18 -10 -21 -5 -3 -10 3 -10 14 0 12 5 21 10 21 6 0 10 -6 10 -14z m10560
-341 c0 -8 -7 -15 -16 -15 -14 0 -14 3 -4 15 7 8 14 15 16 15 2 0 4 -7 4 -15z
m-112 -563 c2 -7 -3 -12 -12 -12 -9 0 -16 -6 -16 -13 0 -25 -152 -157 -180
-157 -6 0 -10 -4 -10 -8 0 -4 -29 -21 -65 -37 -36 -16 -65 -32 -65 -37 0 -4
-8 -8 -19 -8 -10 0 -24 -6 -30 -14 -7 -8 -26 -18 -42 -21 -16 -4 -35 -12 -42
-18 -17 -16 -139 -77 -154 -77 -7 0 -13 -4 -13 -9 0 -5 -17 -16 -37 -25 -21
-8 -76 -36 -123 -61 -137 -74 -325 -170 -341 -173 -7 -2 -15 -8 -17 -13 -2 -5
-133 -73 -290 -153 -258 -129 -337 -171 -547 -286 -33 -18 -89 -48 -125 -68
-36 -19 -78 -43 -95 -52 -217 -120 -426 -232 -438 -234 -6 -1 -18 -5 -25 -10
-7 -4 -15 -6 -17 -4 -9 9 116 88 295 188 102 56 232 131 290 165 178 106 336
193 530 293 102 52 302 158 445 235 275 149 555 287 580 287 8 0 15 3 15 8 0
4 33 22 73 40 39 19 80 38 89 43 23 12 31 11 23 -1 -3 -5 0 -10 8 -10 10 0 13
7 10 20 -4 16 0 20 21 20 24 0 63 16 76 31 3 3 32 27 65 54 33 26 82 67 109
92 47 43 66 49 74 25z m-3091 -174 c-3 -8 -6 -5 -6 6 -1 11 2 17 5 13 3 -3 4
-12 1 -19z m33 -47 c0 -5 -9 -11 -19 -14 -14 -3 -18 -1 -14 9 6 15 33 19 33 5z
m-7225 -172 c17 -142 35 -268 61 -412 8 -49 13 -91 11 -93 -4 -4 -54 230 -77
361 -12 70 -26 293 -17 284 4 -3 13 -66 22 -140z m11926 -70 c-1 -13 -23 -66
-47 -117 -49 -103 -88 -152 -107 -133 -8 8 -3 28 22 76 18 36 37 65 43 65 6 0
9 3 5 6 -8 8 14 51 42 83 12 13 21 30 21 38 0 8 6 13 13 10 6 -2 10 -15 8 -28z
m-9821 -98 c0 -3 -4 -13 -9 -20 -6 -9 -6 -22 0 -32 6 -13 4 -22 -7 -34 -9 -9
-19 -14 -22 -11 -6 7 -4 95 3 107 6 9 35 1 35 -10z m1014 -58 c42 -54 85 -238
71 -305 -8 -36 -73 -108 -97 -108 -10 0 -18 -7 -18 -15 0 -8 -4 -15 -10 -15
-20 0 -38 47 -44 117 -6 77 -19 121 -31 113 -13 -8 -47 67 -52 114 -4 30 0 53
15 79 19 37 32 39 32 5 0 -10 5 -18 10 -18 6 0 10 24 10 54 l0 54 46 -24 c26
-14 56 -37 68 -51z m8626 -118 c-7 -9 -15 -13 -18 -10 -3 2 1 11 8 20 7 9 15
13 18 10 3 -2 -1 -11 -8 -20z m-250 -225 c-8 -5 -19 -10 -25 -10 -5 0 -3 5 5
10 8 5 20 10 25 10 6 0 3 -5 -5 -10z m-60 -40 c0 -5 -4 -10 -10 -10 -5 0 -10
-8 -10 -17 0 -15 -2 -16 -10 -3 -8 13 -10 12 -10 -2 0 -10 -3 -18 -7 -18 -5 0
-24 -15 -44 -33 -49 -45 -134 -99 -204 -132 -67 -30 -106 -49 -149 -72 -16 -8
-39 -16 -51 -17 -13 0 -21 -4 -18 -9 2 -4 -9 -12 -26 -18 -17 -6 -31 -16 -31
-21 0 -6 -9 -8 -20 -5 -11 3 -20 1 -20 -4 0 -5 -6 -9 -14 -9 -8 0 -16 -7 -20
-15 -3 -8 -13 -15 -21 -15 -9 0 -14 -4 -10 -9 3 -5 0 -13 -6 -17 -8 -4 -9 -3
-5 4 12 19 -8 14 -32 -8 -12 -11 -28 -20 -37 -20 -8 0 -14 -6 -12 -12 1 -9 -9
-12 -28 -11 -16 1 -22 -1 -12 -4 9 -2 15 -8 12 -13 -3 -5 -13 -6 -22 -3 -12 5
-14 3 -8 -8 4 -8 5 -11 0 -7 -4 4 -15 2 -23 -5 -13 -10 -14 -9 -4 10 9 16 9
24 0 29 -6 4 -8 3 -5 -2 3 -5 -4 -21 -14 -34 -18 -22 -19 -22 -10 -3 15 31 14
35 -8 21 -11 -7 -18 -15 -15 -20 9 -14 -28 -59 -44 -53 -8 3 -24 -3 -36 -12
l-21 -18 19 23 c11 12 14 22 8 22 -6 0 -14 -4 -17 -10 -3 -5 -14 -10 -23 -10
-13 0 -11 4 7 16 17 13 28 14 46 6 27 -13 51 4 34 24 -7 8 3 19 36 38 25 15
50 24 57 20 7 -4 8 -3 4 4 -8 14 50 45 67 36 7 -4 9 -4 5 1 -10 11 140 98 154
89 6 -4 8 -3 5 3 -3 5 30 29 73 52 44 23 80 40 80 37 0 -3 11 5 25 18 14 13
53 37 87 55 35 17 72 37 83 43 11 6 27 15 35 19 108 55 146 73 153 71 4 -1 7
5 7 13 0 8 9 15 20 15 11 0 20 5 20 10 0 6 5 10 10 10 6 0 10 -4 10 -10z
m1918 -115 c-1 -1 -13 -6 -25 -9 l-23 -7 23 25 c17 20 23 22 25 10 2 -9 2 -17
0 -19z m-117 -116 c-39 -39 -74 -69 -78 -65 -4 3 17 29 45 57 29 28 52 55 52
60 0 10 42 29 49 23 2 -2 -29 -36 -68 -75z m-11351 -156 c0 -17 -5 -35 -11
-38 -6 -4 -30 -37 -53 -74 -44 -69 -137 -170 -175 -190 -18 -10 -23 -7 -42 31
-48 95 -44 123 30 188 77 68 185 135 200 125 4 -2 13 0 21 5 19 12 30 -6 30
-47z m2799 -269 c7 -17 8 -53 1 -122 -5 -53 -12 -162 -15 -242 -6 -168 -14
-248 -26 -271 -5 -10 -3 -21 4 -29 9 -10 9 -11 0 -6 -10 5 -12 -11 -8 -71 l5
-78 -14 50 -14 50 -2 -50 c-1 -27 -2 -56 -1 -64 2 -7 -3 -10 -9 -6 -7 4 -10 0
-8 -11 2 -14 -3 -19 -22 -19 -20 0 -26 6 -28 27 -2 15 -10 32 -18 38 -14 13
-20 35 -6 27 4 -3 8 135 10 306 4 344 11 420 41 448 11 11 24 19 28 19 5 0 14
9 20 19 16 25 47 17 62 -15z m5603 -16 c-85 -87 -120 -119 -137 -124 -11 -4
-38 -22 -61 -40 -23 -19 -44 -34 -48 -34 -4 0 -18 -8 -33 -17 -14 -9 -41 -18
-60 -19 -35 -2 -34 11 2 18 11 2 19 11 19 21 -1 9 2 15 6 12 4 -3 18 5 32 18
13 12 56 42 96 66 40 24 72 47 72 52 0 5 7 9 15 9 8 0 15 5 15 11 0 5 -6 7
-12 3 -7 -4 -10 -3 -5 1 4 5 18 10 30 12 17 2 19 1 7 -6 -8 -6 -12 -13 -8 -16
3 -4 16 3 28 15 16 16 19 24 10 30 -6 4 2 7 18 6 28 -1 29 -2 14 -18z m31 -2
c-15 -13 -30 -23 -32 -20 -5 4 41 43 52 44 4 0 -5 -11 -20 -24z m-8789 -28
c10 -22 13 -44 9 -47 -5 -3 -24 -31 -43 -61 -19 -30 -51 -75 -71 -100 -20 -25
-68 -95 -107 -157 -38 -61 -85 -126 -102 -143 -30 -29 -38 -32 -77 -27 -32 3
-49 12 -61 28 -20 28 -32 114 -21 145 14 40 243 273 314 321 22 15 45 32 50
38 19 21 60 45 76 45 10 0 23 -16 33 -42z m13501 -8 c3 -5 -3 -10 -15 -10 -12
0 -18 5 -15 10 3 6 10 10 15 10 5 0 12 -4 15 -10z m-12145 -16 c0 14 77 -46
91 -71 31 -55 42 -143 30 -237 -14 -105 -17 -113 -43 -119 -19 -5 -20 -11 -15
-67 9 -99 -11 -426 -32 -535 -33 -173 -35 -216 -13 -256 11 -19 28 -61 37 -94
9 -33 27 -76 39 -95 19 -32 21 -46 17 -165 -5 -204 -5 -290 4 -427 7 -110 5
-134 -9 -173 -20 -50 -37 -56 -65 -22 -83 96 -78 79 -92 312 -6 94 -13 231
-17 306 l-7 135 -37 33 c-20 17 -48 55 -62 83 -23 46 -26 64 -26 155 0 96 8
146 57 378 11 51 16 151 18 365 3 243 6 304 20 340 9 25 19 53 22 63 3 9 9 17
14 17 4 0 13 -8 18 -17 6 -10 11 -14 11 -9 0 5 7 3 15 -4 14 -11 14 -10 5 14
-5 15 -10 46 -10 68 0 35 2 39 15 28 8 -7 15 -10 15 -6z m10200 -82 c-19 -15
-35 -25 -35 -22 0 5 -19 -9 -56 -42 -10 -10 -20 -17 -21 -16 -2 1 -23 -11 -46
-26 -24 -15 -121 -66 -215 -113 -95 -47 -180 -89 -190 -94 -29 -15 -147 -59
-242 -90 -49 -16 -97 -33 -105 -38 -9 -5 -30 -12 -49 -16 -18 -4 -44 -13 -59
-21 -15 -8 -43 -17 -62 -20 -19 -4 -39 -10 -45 -13 -5 -4 -57 -22 -115 -41
-58 -18 -136 -48 -175 -65 -38 -18 -81 -36 -95 -40 -14 -4 -65 -34 -115 -65
-368 -236 -584 -368 -690 -425 -38 -20 -115 -61 -170 -91 -74 -39 -107 -52
-124 -47 -18 5 -22 3 -16 -7 5 -8 4 -11 -3 -6 -6 3 -34 -5 -63 -18 -28 -14
-57 -23 -63 -19 -6 3 -8 2 -4 -2 5 -5 -4 -16 -20 -25 -24 -15 -29 -16 -44 -3
-15 14 -21 13 -53 -7 -20 -12 -39 -20 -42 -16 -5 5 319 166 334 166 3 0 66 35
141 79 76 43 166 93 202 111 36 18 115 64 175 103 160 102 380 234 444 267 31
15 142 58 246 95 105 37 199 71 210 75 11 5 61 21 110 36 348 104 653 239 855
378 29 20 57 36 64 36 6 0 36 13 67 30 31 16 59 26 63 23 3 -3 6 -1 6 5 0 7 8
12 18 12 12 0 7 -8 -18 -28z m-530 10 c0 -14 -24 -32 -43 -32 -17 0 -17 2 4
20 26 21 39 25 39 12z m-57 -49 c-7 -2 -19 -2 -25 0 -7 3 -2 5 12 5 14 0 19
-2 13 -5z m-44 -17 c-15 -13 -202 -106 -206 -102 -3 2 10 12 29 21 18 10 40
24 49 32 9 7 25 15 36 17 11 2 35 13 53 25 19 11 36 18 39 16 2 -3 2 -7 0 -9z
m-2512 -62 c-3 -3 -12 -4 -19 -1 -8 3 -5 6 6 6 11 1 17 -2 13 -5z m5103 -34
c0 -30 -120 -123 -137 -106 -9 8 8 27 65 72 59 45 72 52 72 34z m-2810 -20 c0
-5 -4 -10 -10 -10 -5 0 -10 5 -10 10 0 6 5 10 10 10 6 0 10 -4 10 -10z m1920
-17 c25 -7 25 -7 -5 -13 -36 -7 -75 -1 -75 11 0 11 45 12 80 2z m-440 -121 c0
-9 -30 -28 -105 -65 -99 -48 -105 -51 -110 -45 -7 6 63 49 145 90 59 29 70 32
70 20z m-12675 -127 c40 -11 61 -24 81 -50 25 -33 26 -41 21 -108 -3 -40 -15
-110 -26 -157 -73 -302 -105 -443 -142 -628 -18 -92 -49 -327 -55 -422 -4 -55
-10 -100 -15 -100 -10 0 -62 170 -88 286 -11 50 -30 162 -42 250 -18 136 -20
193 -16 399 5 260 18 345 72 460 44 93 86 107 210 70z m9992 -18 c-22 -7 -35
-15 -31 -19 4 -5 -4 -8 -19 -8 -14 0 -38 -5 -53 -11 -16 -5 -71 -21 -124 -35
-143 -38 -274 -89 -565 -219 -212 -95 -307 -135 -322 -135 -7 0 -13 -3 -13 -8
0 -10 -60 -36 -67 -28 -4 3 1 6 9 6 9 0 18 6 21 13 11 29 629 326 782 377 65
22 337 77 380 78 l40 0 -38 -11z m2373 -16 c0 -5 -33 -24 -72 -43 -40 -18
-151 -72 -246 -120 -95 -49 -180 -88 -189 -88 -9 0 -14 -3 -10 -6 9 -9 -6 -21
-110 -97 -51 -37 -100 -67 -108 -67 -8 0 -15 -4 -15 -8 0 -5 -39 -30 -87 -57
-49 -27 -99 -56 -113 -65 -14 -9 -47 -25 -75 -35 -64 -24 -152 -73 -235 -132
-125 -88 -210 -144 -242 -158 -53 -24 -378 -237 -422 -277 -11 -10 -32 -24
-48 -30 -15 -7 -28 -16 -28 -20 0 -5 -5 -8 -12 -8 -6 0 -22 -10 -35 -22 -21
-19 -26 -20 -34 -8 -9 13 -10 12 -5 -2 3 -12 -6 -24 -30 -38 -18 -12 -34 -25
-34 -29 0 -18 -213 -141 -245 -141 -9 0 -36 -9 -61 -21 -25 -11 -51 -18 -57
-16 -6 2 -20 -5 -31 -15 -24 -22 -92 -42 -108 -32 -6 4 -8 3 -5 -3 7 -11 -34
-33 -63 -33 -11 0 -20 -5 -20 -12 0 -6 -3 -9 -6 -5 -4 3 -19 0 -35 -8 -15 -8
-38 -15 -49 -15 -21 0 -86 -23 -165 -60 -94 -42 -135 -60 -141 -60 -6 0 -126
-54 -156 -71 -10 -5 -26 -9 -36 -9 -10 0 -22 -3 -25 -6 -4 -4 -21 -8 -39 -9
-18 -1 -46 -4 -63 -8 l-30 -8 30 15 c123 61 461 199 605 246 278 93 500 178
570 219 36 22 97 65 135 98 66 55 150 117 371 276 52 37 125 83 162 103 37 20
137 83 222 139 85 57 207 130 270 163 63 32 174 90 245 127 122 63 259 147
271 166 3 5 12 9 19 9 13 0 102 55 115 71 15 18 234 131 290 150 36 12 70 26
76 30 11 9 82 37 97 38 4 1 7 -3 7 -8z m-8854 -503 c-3 -24 -5 -44 -5 -46 -1
-2 -5 -1 -10 3 -10 6 -8 39 4 68 12 29 16 19 11 -25z m31 10 c-3 -8 -6 -5 -6
6 -1 11 2 17 5 13 3 -3 4 -12 1 -19z m-174 -203 c-3 -9 -8 -14 -10 -11 -3 3
-2 9 2 15 9 16 15 13 8 -4z m-1933 -135 c-13 -8 -13 -10 2 -10 21 0 51 -49 77
-128 18 -52 20 -72 13 -113 -5 -28 -6 -52 -1 -55 9 -5 12 12 10 51 0 14 3 11
10 -8 9 -24 8 -32 -5 -45 -16 -16 -19 -16 -35 4 -14 18 -19 19 -27 8 -15 -21
-74 8 -75 38 0 21 -1 21 -8 4 -7 -19 -8 -19 -14 3 -3 12 -3 38 0 57 3 18 0 47
-6 62 -17 41 -19 98 -3 95 6 -2 12 2 12 7 0 18 24 39 45 39 17 1 17 -1 5 -9z
m11730 -46 c0 -8 -5 -12 -10 -9 -6 4 -8 11 -5 16 9 14 15 11 15 -7z m1370 -38
c0 -2 -7 -9 -15 -16 -13 -11 -14 -10 -9 4 5 14 24 23 24 12z m-5420 -10 c0 -2
-25 -18 -54 -37 -30 -18 -52 -37 -49 -42 3 -6 1 -7 -5 -3 -6 3 -15 -1 -20 -9
-12 -23 -100 -76 -230 -140 -63 -30 -115 -55 -117 -55 -2 0 -65 -30 -142 -66
-76 -36 -174 -81 -218 -99 -44 -18 -105 -44 -135 -58 -30 -14 -95 -43 -145
-65 -49 -22 -125 -56 -167 -76 -176 -83 -263 -117 -287 -114 -20 2 7 19 119
75 170 84 351 167 540 248 253 108 555 252 730 348 181 100 180 99 180 93z
m5380 -36 c0 -5 -5 -10 -11 -10 -5 0 -7 5 -4 10 3 6 8 10 11 10 2 0 4 -4 4
-10z m-14819 -310 c79 -312 99 -415 99 -509 -1 -78 -14 -101 -53 -94 -30 6
-27 -5 -51 188 -36 281 -40 307 -80 490 -23 102 -19 211 6 203 6 -2 41 -127
79 -278z m12649 271 c0 -28 -222 -155 -333 -191 -92 -30 -105 -20 -27 20 36
17 101 52 145 76 76 42 111 60 180 90 36 16 35 16 35 5z m2955 -101 c10 -11
14 -20 8 -20 -5 0 -18 9 -28 20 -10 11 -14 20 -8 20 5 0 18 -9 28 -20z m110
-50 c-3 -5 -25 -9 -48 -8 l-42 1 45 7 c25 4 46 8 48 8 2 1 0 -2 -3 -8z
m-13918 -42 c-3 -7 -5 -2 -5 12 0 14 2 19 5 13 2 -7 2 -19 0 -25z m13583 -12
c0 -21 -10 -25 -145 -71 -150 -51 -228 -92 -305 -162 -33 -31 -63 -54 -65 -51
-11 11 169 169 216 190 16 7 29 15 29 19 0 7 82 43 135 59 22 7 49 16 60 21
34 13 75 10 75 -5z m-3165 -16 c-3 -5 -14 -10 -24 -10 -9 0 -22 -5 -29 -12 -8
-8 -12 -9 -12 -1 0 6 12 16 28 21 36 14 44 14 37 2z m3275 -8 c0 -21 -34 -52
-57 -52 l-27 0 29 30 c27 28 55 40 55 22z m-13670 -12 c0 -5 -7 -7 -15 -4 -8
4 -15 8 -15 10 0 2 7 4 15 4 8 0 15 -4 15 -10z m60 -21 c4 -8 12 -24 18 -36 7
-13 12 -31 12 -40 0 -14 2 -15 9 -4 6 10 11 4 16 -20 4 -19 11 -38 15 -44 21
-28 37 -229 19 -240 -5 -4 -7 -16 -3 -27 4 -14 2 -18 -5 -14 -6 4 -11 2 -11
-3 0 -33 -76 -74 -86 -47 -3 9 -10 14 -14 11 -9 -5 -24 52 -40 150 -38 235
-41 268 -31 275 7 3 9 14 6 22 -9 24 8 29 39 12 35 -18 42 -18 27 -1 -12 15
-4 30 13 24 5 -2 13 -10 16 -18z m10102 -39 c-18 -11 -36 -19 -40 -19 -4 1
-16 -2 -27 -5 -11 -4 -24 -7 -28 -6 -4 0 -14 -6 -22 -14 -9 -8 -37 -18 -63
-22 -26 -3 -54 -12 -62 -19 -8 -7 -31 -16 -50 -20 -19 -4 -39 -11 -45 -15 -16
-12 -137 -22 -320 -26 -167 -3 -213 -8 -385 -39 -113 -20 -208 -27 -215 -15
-7 11 -19 9 -140 -21 -181 -46 -336 -104 -545 -206 -282 -138 -409 -195 -428
-191 -33 6 683 353 818 397 136 44 242 62 369 66 69 2 156 8 194 14 37 6 176
18 310 26 286 16 376 31 557 90 154 50 167 53 122 25z m3533 -24 c30 -13 30
-13 -30 -20 -163 -17 -280 -37 -322 -56 -25 -11 -48 -18 -50 -16 -9 9 44 35
122 61 131 44 226 55 280 31z m-25 -116 c0 -5 -5 -10 -11 -10 -35 0 -370 -174
-422 -218 -22 -19 -31 -10 -23 22 3 14 26 39 51 56 46 32 239 122 310 145 49
16 95 18 95 5z m5 -36 c-13 -19 -33 -61 -44 -92 -12 -31 -28 -70 -38 -87 -9
-16 -32 -59 -51 -94 -32 -59 -36 -63 -44 -42 -4 13 -4 51 2 87 17 104 4 108
-72 22 -36 -40 -70 -82 -76 -93 -9 -17 -11 -16 -17 17 -18 97 97 208 284 274
29 10 56 25 58 31 3 7 9 13 14 13 5 0 -3 -16 -16 -36z m-455 13 c0 -2 -17 -19
-37 -38 l-38 -34 34 38 c33 34 41 42 41 34z m-3230 -57 c21 -11 63 -44 93 -72
29 -29 40 -42 23 -28 -17 14 -33 28 -36 31 -3 4 -34 25 -70 48 -69 44 -74 54
-10 21z m3883 4 c15 -16 -28 -48 -136 -104 -64 -32 -119 -55 -122 -50 -7 11
100 88 179 130 61 32 69 34 79 24z m164 -21 c-9 -9 -20 -13 -24 -9 -4 4 1 14
11 22 25 18 35 8 13 -13z m-906 -21 c-5 -10 -18 -25 -28 -33 -12 -10 -11 -5 6
19 24 35 38 43 22 14z m759 -21 c0 -3 -13 -12 -28 -19 -15 -6 -55 -48 -87 -92
-36 -49 -66 -80 -77 -80 -10 0 -18 3 -18 8 1 17 90 124 135 161 41 34 75 44
75 22z m-1006 -96 c11 -8 17 -17 14 -20 -3 -3 -16 3 -29 14 -27 23 -14 28 15
6z m147 -42 c-12 -20 -14 -14 -5 12 4 9 9 14 11 11 3 -2 0 -13 -6 -23z m-56
-15 c5 -5 2 -8 -7 -8 -9 0 -26 9 -39 20 l-24 20 30 -12 c17 -6 34 -15 40 -20z
m-3557 -1 c-7 -8 -31 -37 -53 -65 -42 -55 -61 -66 -50 -29 14 47 30 77 42 77
7 0 10 7 7 15 -5 12 2 15 31 15 30 0 34 -2 23 -13z m3599 -29 c-3 -8 -6 -5 -6
6 -1 11 2 17 5 13 3 -3 4 -12 1 -19z m-11101 -138 c0 -12 -4 -16 -9 -11 -5 5
-6 14 -3 20 10 15 12 14 12 -9z m-3846 6 c0 -3 -4 -8 -10 -11 -5 -3 -10 -1
-10 4 0 6 5 11 10 11 6 0 10 -2 10 -4z"/>
<path d="M5070 20672 c0 -10 -3 -22 -7 -26 -4 -4 -9 -26 -10 -49 l-3 -42 20
33 c14 22 27 32 45 32 28 0 33 23 11 53 -18 23 -56 23 -56 -1z"/>
<path d="M5015 20258 c-4 -46 -11 -88 -15 -93 -11 -14 -13 -86 -4 -189 8 -96
24 -83 24 19 0 50 5 78 17 95 11 16 13 25 5 28 -23 7 -25 70 -4 116 15 31 19
52 13 72 -14 55 -28 36 -36 -48z"/>
<path d="M4646 19984 c-8 -208 -18 -291 -53 -434 -38 -157 -26 -250 43 -333
28 -33 29 -30 9 43 -19 70 -19 114 0 220 39 217 57 532 36 624 -20 83 -28 55
-35 -120z"/>
<path d="M4487 20028 c15 -170 9 -365 -12 -453 -26 -111 -25 -221 4 -315 12
-41 67 -165 122 -275 58 -116 108 -232 119 -275 l20 -75 -6 105 c-8 143 -31
205 -153 404 -86 142 -89 159 -61 439 13 134 20 254 17 291 -9 97 -39 246 -49
246 -5 0 -5 -38 -1 -92z"/>
<path d="M5071 19630 c0 -8 6 -42 14 -75 l15 -60 -4 57 c-4 51 -26 119 -25 78z"/>
<path d="M8688 15203 c7 -3 16 -2 19 1 4 3 -2 6 -13 5 -11 0 -14 -3 -6 -6z"/>
<path d="M20930 1150 c-8 -5 -10 -10 -5 -10 6 0 17 5 25 10 8 5 11 10 5 10 -5
0 -17 -5 -25 -10z"/>
<path d="M20723 1090 c-13 -5 -23 -12 -23 -15 0 -4 5 -3 12 1 8 5 9 2 5 -9 -9
-24 -2 -21 17 8 9 14 15 25 14 24 -2 0 -13 -4 -25 -9z"/>
<path d="M12931 854 c0 -11 3 -14 6 -6 3 7 2 16 -1 19 -3 4 -6 -2 -5 -13z"/>
<path d="M19595 3930 c-3 -6 1 -7 9 -4 18 7 21 14 7 14 -6 0 -13 -4 -16 -10z"/>
<path d="M19235 3730 c-3 -6 1 -7 9 -4 18 7 21 14 7 14 -6 0 -13 -4 -16 -10z"/>
<path d="M18698 3383 c7 -3 16 -2 19 1 4 3 -2 6 -13 5 -11 0 -14 -3 -6 -6z"/>
<path d="M18640 3350 c-8 -5 -10 -10 -5 -10 6 0 17 5 25 10 8 5 11 10 5 10 -5
0 -17 -5 -25 -10z"/>
<path d="M26166 1371 c-3 -5 1 -12 10 -15 22 -8 25 -4 9 11 -8 7 -16 9 -19 4z"/>
<path d="M14891 1084 c0 -11 3 -14 6 -6 3 7 2 16 -1 19 -3 4 -6 -2 -5 -13z"/>
</g>
</svg>
